%TF.GenerationSoftware,Altium Limited,Altium Designer,25.8.1 (18)*%
G04 Layer_Color=8388736*
%FSLAX45Y45*%
%MOMM*%
%TF.SameCoordinates,E65FC597-5470-48E6-A3C5-A0BB56F9C58A*%
%TF.FilePolarity,Negative*%
%TF.FileFunction,Soldermask,Top*%
%TF.Part,Single*%
G01*
G75*
%TA.AperFunction,SMDPad,CuDef*%
%ADD11R,0.80000X0.90000*%
%TA.AperFunction,ConnectorPad*%
%ADD12R,0.90000X2.00000*%
%TA.AperFunction,SMDPad,CuDef*%
%ADD13R,1.35620X1.05464*%
%ADD14R,0.85822X0.85626*%
%TA.AperFunction,BGAPad,CuDef*%
%ADD15R,1.33000X1.33000*%
%TA.AperFunction,ConnectorPad*%
%ADD17R,2.00000X0.90000*%
%TA.AperFunction,SMDPad,CuDef*%
%ADD18R,0.81213X0.65872*%
%ADD19R,0.80000X0.80000*%
%ADD20R,0.60000X1.10000*%
%ADD21R,0.91213X0.85872*%
%TA.AperFunction,ComponentPad*%
G04:AMPARAMS|DCode=23|XSize=1mm|YSize=1.8mm|CornerRadius=0.5mm|HoleSize=0mm|Usage=FLASHONLY|Rotation=90.000|XOffset=0mm|YOffset=0mm|HoleType=Round|Shape=RoundedRectangle|*
%AMROUNDEDRECTD23*
21,1,1.00000,0.80000,0,0,90.0*
21,1,0.00000,1.80000,0,0,90.0*
1,1,1.00000,0.40000,0.00000*
1,1,1.00000,0.40000,0.00000*
1,1,1.00000,-0.40000,0.00000*
1,1,1.00000,-0.40000,0.00000*
%
%ADD23ROUNDEDRECTD23*%
G04:AMPARAMS|DCode=24|XSize=1mm|YSize=2.2mm|CornerRadius=0.5mm|HoleSize=0mm|Usage=FLASHONLY|Rotation=90.000|XOffset=0mm|YOffset=0mm|HoleType=Round|Shape=RoundedRectangle|*
%AMROUNDEDRECTD24*
21,1,1.00000,1.20000,0,0,90.0*
21,1,0.00000,2.20000,0,0,90.0*
1,1,1.00000,0.60000,0.00000*
1,1,1.00000,0.60000,0.00000*
1,1,1.00000,-0.60000,0.00000*
1,1,1.00000,-0.60000,0.00000*
%
%ADD24ROUNDEDRECTD24*%
%ADD26C,0.90000*%
%TA.AperFunction,SMDPad,CuDef*%
%ADD68R,0.80000X0.80000*%
%TA.AperFunction,ComponentPad*%
%ADD69R,1.60800X1.60800*%
%ADD70C,1.60800*%
%TA.AperFunction,ViaPad*%
%ADD71C,1.62400*%
%ADD72C,0.80000*%
D11*
X4400000Y2865000D02*
D03*
X4475000Y415000D02*
D03*
Y585000D02*
D03*
X4400000Y3035000D02*
D03*
D12*
X4625000Y2575000D02*
D03*
Y875000D02*
D03*
X4498000Y2575000D02*
D03*
X4371000Y875000D02*
D03*
X3990000Y2575000D02*
D03*
X2974000Y875000D02*
D03*
X3609000Y2575000D02*
D03*
X3228000D02*
D03*
X3990000Y875000D02*
D03*
X3863000Y2575000D02*
D03*
X4371000D02*
D03*
X4244000D02*
D03*
X4117000D02*
D03*
X3736000D02*
D03*
X3482000D02*
D03*
X3355000D02*
D03*
X3101000D02*
D03*
X2974000D02*
D03*
X3101000Y875000D02*
D03*
X3228000D02*
D03*
X3355000D02*
D03*
X3482000D02*
D03*
X3609000D02*
D03*
X3736000D02*
D03*
X3863000D02*
D03*
X4117000D02*
D03*
X4244000D02*
D03*
X4498000D02*
D03*
D13*
X3696500Y3010388D02*
D03*
Y2865232D02*
D03*
D14*
X3425000Y2855313D02*
D03*
Y2975509D02*
D03*
D15*
X3875000Y2008500D02*
D03*
X3691500D02*
D03*
X4058500D02*
D03*
Y1641500D02*
D03*
Y1825000D02*
D03*
X3875000D02*
D03*
X3691500D02*
D03*
Y1641500D02*
D03*
X3875000D02*
D03*
D17*
X2874000Y2296500D02*
D03*
Y1280500D02*
D03*
Y2169500D02*
D03*
Y2042500D02*
D03*
Y1915500D02*
D03*
Y1788500D02*
D03*
Y1661500D02*
D03*
Y1534500D02*
D03*
Y1407500D02*
D03*
Y1153500D02*
D03*
D18*
X3825000Y592671D02*
D03*
Y457329D02*
D03*
X4175000D02*
D03*
Y592671D02*
D03*
D19*
X4675000Y3100000D02*
D03*
X4825000D02*
D03*
X4801641Y2877900D02*
D03*
X4651640D02*
D03*
D20*
X3170000Y3215000D02*
D03*
Y2935000D02*
D03*
X2980000D02*
D03*
X3075000D02*
D03*
X2980000Y3215000D02*
D03*
D21*
X4180583Y2870436D02*
D03*
Y3025777D02*
D03*
X3955583D02*
D03*
Y2870436D02*
D03*
D23*
X567500Y2162000D02*
D03*
Y1298000D02*
D03*
D24*
X167500Y2162000D02*
D03*
Y1298000D02*
D03*
D26*
X810000Y3225000D02*
D03*
X1490000D02*
D03*
D68*
X4880000Y383500D02*
D03*
X4770000D02*
D03*
X4880000Y566500D02*
D03*
X4770000D02*
D03*
D69*
X2500000Y2101000D02*
D03*
D70*
Y1847000D02*
D03*
Y1593000D02*
D03*
Y1339000D02*
D03*
D71*
X175000Y175000D02*
D03*
X5175000D02*
D03*
X175000Y3275000D02*
D03*
X5175000D02*
D03*
D72*
X875000Y1075000D02*
D03*
X745000Y1625000D02*
D03*
X1050000Y2400000D02*
D03*
X1407247Y2676300D02*
D03*
X658592Y2429736D02*
D03*
X3300000Y2800000D02*
D03*
X3322844Y2939857D02*
D03*
X4800000Y175000D02*
D03*
X3150000Y1850000D02*
D03*
X2320000Y2240000D02*
D03*
X1204760Y2871000D02*
D03*
X4123079Y2256179D02*
D03*
X4350000Y2375000D02*
D03*
X4360000Y1930000D02*
D03*
X2189629Y414629D02*
D03*
X5050000Y525000D02*
D03*
X3764207Y2240710D02*
D03*
X3677095Y2402097D02*
D03*
X3475000Y2392700D02*
D03*
X1050000Y950000D02*
D03*
X4750000Y3240400D02*
D03*
X1175000Y2625000D02*
D03*
X3417871Y1987871D02*
D03*
X1450000Y1950000D02*
D03*
Y1800000D02*
D03*
X1750000Y2700000D02*
D03*
X2075000Y3250000D02*
D03*
X3920607Y457300D02*
D03*
X1450000Y775000D02*
D03*
X4209142Y1384745D02*
D03*
X4480000Y1440000D02*
D03*
X4134160Y1268260D02*
D03*
X4475000Y1100000D02*
D03*
X3550000Y1475000D02*
D03*
X3292869Y1463611D02*
D03*
X4305000Y3025000D02*
D03*
X4446841Y1650759D02*
D03*
X3525000Y2950000D02*
D03*
X1819440Y1250480D02*
D03*
X2275214Y1305639D02*
D03*
X1350000Y1425000D02*
D03*
X3928520Y2274100D02*
D03*
X4925000Y2925000D02*
D03*
X1050000Y2870000D02*
D03*
X375371Y2699629D02*
D03*
X260000Y2270000D02*
D03*
X1426593Y2288460D02*
D03*
X2550000Y2900000D02*
D03*
X3998760Y1298420D02*
D03*
X1450000Y1475000D02*
D03*
X1707680Y3226600D02*
D03*
X2075000Y2425000D02*
D03*
X2800000Y2875000D02*
D03*
X1950000Y2250000D02*
D03*
X752640Y320840D02*
D03*
X451558Y1766100D02*
D03*
X750000Y600000D02*
D03*
X4842040Y3320580D02*
D03*
%TF.MD5,b9dfcb65ea2b289c8e342bdcc1256ef0*%
M02*
