%TF.GenerationSoftware,Altium Limited,Altium Designer,25.8.1 (18)*%
G04 Layer_Color=32768*
%FSLAX45Y45*%
%MOMM*%
%TF.SameCoordinates,E65FC597-5470-48E6-A3C5-A0BB56F9C58A*%
%TF.FilePolarity,Positive*%
%TF.FileFunction,Other,Top_Courtyard*%
%TF.Part,Single*%
G01*
G75*
%TA.AperFunction,NonConductor*%
%ADD62C,0.20000*%
%ADD90C,0.05000*%
D62*
X3770000Y635607D02*
X3880000D01*
X3770000Y414393D02*
Y635607D01*
Y414393D02*
X3880000D01*
Y635607D01*
X4625000Y3045000D02*
Y3155000D01*
Y3045000D02*
X4875000D01*
Y3155000D01*
X4625000D02*
X4875000D01*
X4530000Y360000D02*
Y640000D01*
X4420000Y360000D02*
X4530000D01*
X4420000D02*
Y640000D01*
X4530000D01*
X4345000Y2810000D02*
X4455000D01*
Y3090000D01*
X4345000D02*
X4455000D01*
X4345000Y2810000D02*
Y3090000D01*
X4120000Y635607D02*
X4230000D01*
X4120000Y414393D02*
Y635607D01*
Y414393D02*
X4230000D01*
Y635607D01*
X3614000Y2802500D02*
X3779000D01*
Y3073120D01*
X3614000D02*
X3779000D01*
X3614000Y2802500D02*
Y3073120D01*
X3482500Y2802500D02*
Y3028322D01*
X3367500Y2802500D02*
X3482500D01*
X3367500D02*
Y3028322D01*
X3482500D01*
X4601641Y2932900D02*
X4851641D01*
Y2822900D02*
Y2932900D01*
X4601641Y2822900D02*
X4851641D01*
X4601641D02*
Y2932900D01*
X5389000Y765000D02*
Y2685000D01*
X2764000Y765000D02*
X5389000D01*
X2764000D02*
Y2685000D01*
X5389000D01*
X2885000Y2870000D02*
Y3280000D01*
X3265000D01*
Y2870000D02*
Y3280000D01*
X2885000Y2870000D02*
X3265000D01*
X4109977Y2802500D02*
Y3093713D01*
X4251190D01*
Y2802500D02*
Y3093713D01*
X4109977Y2802500D02*
X4251190D01*
X4026190D02*
Y3093713D01*
X3884976Y2802500D02*
X4026190D01*
X3884976D02*
Y3093713D01*
X4026190D01*
D90*
X4700000Y323500D02*
X4950000D01*
X4700000D02*
Y626500D01*
X4950000D01*
Y323500D02*
Y626500D01*
X2675000Y395000D02*
Y3045000D01*
X25000Y395000D02*
X2675000D01*
X25000D02*
Y3045000D01*
X2675000D01*
%TF.MD5,8f4acafe6c6c7ddee4e1683813468143*%
M02*
