%TF.GenerationSoftware,Altium Limited,Altium Designer,25.8.1 (18)*%
G04 Layer_Physical_Order=3*
G04 Layer_Color=16440176*
%FSLAX45Y45*%
%MOMM*%
%TF.SameCoordinates,E65FC597-5470-48E6-A3C5-A0BB56F9C58A*%
%TF.FilePolarity,Positive*%
%TF.FileFunction,Copper,L3,Inr,Signal*%
%TF.Part,Single*%
G01*
G75*
%TA.AperFunction,Conductor*%
%ADD10C,0.25400*%
%TA.AperFunction,ComponentPad*%
G04:AMPARAMS|DCode=23|XSize=1mm|YSize=1.8mm|CornerRadius=0.5mm|HoleSize=0mm|Usage=FLASHONLY|Rotation=90.000|XOffset=0mm|YOffset=0mm|HoleType=Round|Shape=RoundedRectangle|*
%AMROUNDEDRECTD23*
21,1,1.00000,0.80000,0,0,90.0*
21,1,0.00000,1.80000,0,0,90.0*
1,1,1.00000,0.40000,0.00000*
1,1,1.00000,0.40000,0.00000*
1,1,1.00000,-0.40000,0.00000*
1,1,1.00000,-0.40000,0.00000*
%
%ADD23ROUNDEDRECTD23*%
G04:AMPARAMS|DCode=24|XSize=1mm|YSize=2.2mm|CornerRadius=0.5mm|HoleSize=0mm|Usage=FLASHONLY|Rotation=90.000|XOffset=0mm|YOffset=0mm|HoleType=Round|Shape=RoundedRectangle|*
%AMROUNDEDRECTD24*
21,1,1.00000,1.20000,0,0,90.0*
21,1,0.00000,2.20000,0,0,90.0*
1,1,1.00000,0.60000,0.00000*
1,1,1.00000,0.60000,0.00000*
1,1,1.00000,-0.60000,0.00000*
1,1,1.00000,-0.60000,0.00000*
%
%ADD24ROUNDEDRECTD24*%
%ADD25C,1.50800*%
%ADD26C,0.90000*%
%TA.AperFunction,ViaPad*%
%ADD27C,1.52400*%
%ADD28C,0.70000*%
%TA.AperFunction,Conductor*%
%ADD29C,0.35400*%
D10*
X3857899Y2512060D02*
G03*
X3842659Y2517140I-15240J-20320D01*
G01*
X4009507Y2360452D02*
G03*
X4007200Y2363120I-20321J-15240D01*
G01*
X3860567Y2509753D02*
G03*
X3857899Y2512060I-17909J-18013D01*
G01*
X4014587Y2345212D02*
G03*
X4009507Y2360452I-25400J0D01*
G01*
X3005646Y2090885D02*
G03*
X3000566Y2075645I20320J-15240D01*
G01*
X3426821Y2512060D02*
G03*
X3424152Y2509752I15240J-20321D01*
G01*
X3007953Y2093553D02*
G03*
X3005646Y2090885I18013J-17909D01*
G01*
X3442061Y2517140D02*
G03*
X3426821Y2512060I0J-25400D01*
G01*
X2593099Y1472959D02*
G03*
X2593110Y1472970I-17860J18061D01*
G01*
X2430436Y1460500D02*
G03*
X2427801Y1458225I15240J-20321D01*
G01*
X2590439Y1470660D02*
G03*
X2593099Y1472959I-15240J20321D01*
G01*
X2427801Y1458225D02*
G03*
X2427765Y1458190I17835J-18086D01*
G01*
X2445676Y1465580D02*
G03*
X2430436Y1460500I0J-25400D01*
G01*
X2575199Y1465580D02*
G03*
X2590439Y1470660I0J25400D01*
G01*
X2993178Y1873038D02*
G03*
X2995486Y1875707I-18013J17909D01*
G01*
D02*
G03*
X3000566Y1890947I-20320J15240D01*
G01*
X3921081Y477155D02*
G03*
X3928520Y495115I-17961J17960D01*
G01*
X3915419Y471493D02*
G03*
X3913793Y469694I18009J-17911D01*
G01*
X3860567Y2509752D02*
X4007199Y2363120D01*
X4014587Y1579300D02*
Y2345212D01*
X3442061Y2517140D02*
X3842659D01*
X3000566Y1890947D02*
Y2075645D01*
X3007953Y2093553D02*
X3424152Y2509752D01*
X2593110Y1472970D02*
X2993178Y1873038D01*
X2275214Y1305639D02*
X2427765Y1458190D01*
X2445676Y1465580D02*
X2575199D01*
X745000Y1625000D02*
X1275000D01*
X260000Y2270000D02*
X980000D01*
X1275000Y1625000D02*
X1450000Y1800000D01*
X980000Y2270000D02*
X1450000Y1800000D01*
Y1800000D02*
Y1800000D01*
X3913732Y464175D02*
Y469806D01*
X3915419Y471493D02*
X3921081Y477155D01*
X3913732Y464175D02*
X3920607Y457300D01*
X3913732Y469806D02*
X3913793Y469694D01*
X3928520Y495115D02*
Y2274100D01*
X3764207Y2238465D02*
Y2240710D01*
X2189629Y414629D02*
Y1085798D01*
X2204600Y1100769D01*
X4209142Y1384142D02*
Y1384745D01*
X4014587Y1579300D02*
X4209142Y1384745D01*
X2500000Y2101000D02*
Y2250000D01*
X3181323Y2931323D01*
X3314310D01*
X2300438Y1230900D02*
X2756642D01*
X2204600Y1100769D02*
X2288338Y1218799D01*
X2756642Y1230900D02*
X3764207Y2238465D01*
X3314310Y2931323D02*
X3322844Y2939857D01*
X2288338Y1218799D02*
X2300438Y1230900D01*
X4415320Y2445320D02*
Y2818885D01*
X4350000Y2380000D02*
X4415320Y2445320D01*
X4350000Y2375000D02*
Y2380000D01*
X2646200Y3250000D02*
X2773100Y3123100D01*
X2075000Y3250000D02*
X2646200D01*
X4305000Y3025000D02*
X4425000D01*
X4483020Y1699007D02*
Y2966980D01*
X4446841Y1662828D02*
X4483020Y1699007D01*
X4425000Y3025000D02*
X4483020Y2966980D01*
X4446841Y1650759D02*
Y1662828D01*
X2773100Y3123100D02*
X2775000Y3125000D01*
X2550000Y2900000D02*
X2773100Y3123100D01*
X4111105D02*
X4415320Y2818885D01*
X2775000Y3125000D02*
X2900000D01*
Y3123100D02*
X4111105D01*
D23*
X567500Y2162000D02*
D03*
Y1298000D02*
D03*
D24*
X167500Y2162000D02*
D03*
Y1298000D02*
D03*
D25*
X2500000Y2101000D02*
D03*
Y1847000D02*
D03*
Y1593000D02*
D03*
Y1339000D02*
D03*
D26*
X810000Y3225000D02*
D03*
X1490000D02*
D03*
D27*
X175000Y175000D02*
D03*
X5175000D02*
D03*
X175000Y3275000D02*
D03*
X5175000D02*
D03*
D28*
X875000Y1075000D02*
D03*
X745000Y1625000D02*
D03*
X1050000Y2400000D02*
D03*
X1407247Y2676300D02*
D03*
X658592Y2429736D02*
D03*
X3300000Y2800000D02*
D03*
X3322844Y2939857D02*
D03*
X4800000Y175000D02*
D03*
X3150000Y1850000D02*
D03*
X2320000Y2240000D02*
D03*
X1204760Y2871000D02*
D03*
X4123079Y2256179D02*
D03*
X4350000Y2375000D02*
D03*
X4360000Y1930000D02*
D03*
X2189629Y414629D02*
D03*
X5050000Y525000D02*
D03*
X3764207Y2240710D02*
D03*
X3677095Y2402097D02*
D03*
X3475000Y2392700D02*
D03*
X1050000Y950000D02*
D03*
X4750000Y3240400D02*
D03*
X1175000Y2625000D02*
D03*
X3417871Y1987871D02*
D03*
X1450000Y1950000D02*
D03*
Y1800000D02*
D03*
X1750000Y2700000D02*
D03*
X2075000Y3250000D02*
D03*
X3920607Y457300D02*
D03*
X1450000Y775000D02*
D03*
X4209142Y1384745D02*
D03*
X4480000Y1440000D02*
D03*
X4134160Y1268260D02*
D03*
X4475000Y1100000D02*
D03*
X3550000Y1475000D02*
D03*
X3292869Y1463611D02*
D03*
X4305000Y3025000D02*
D03*
X4446841Y1650759D02*
D03*
X3525000Y2950000D02*
D03*
X1819440Y1250480D02*
D03*
X2275214Y1305639D02*
D03*
X1350000Y1425000D02*
D03*
X3928520Y2274100D02*
D03*
X4925000Y2925000D02*
D03*
X1050000Y2870000D02*
D03*
X375371Y2699629D02*
D03*
X260000Y2270000D02*
D03*
X1426593Y2288460D02*
D03*
X2550000Y2900000D02*
D03*
X3998760Y1298420D02*
D03*
X1450000Y1475000D02*
D03*
X1707680Y3226600D02*
D03*
X2075000Y2425000D02*
D03*
X2800000Y2875000D02*
D03*
X1950000Y2250000D02*
D03*
X752640Y320840D02*
D03*
X451558Y1766100D02*
D03*
X750000Y600000D02*
D03*
X4842040Y3320580D02*
D03*
D29*
X4275000Y1645000D02*
Y2556587D01*
Y1645000D02*
X4480000Y1440000D01*
X3300000Y2800000D02*
X4031588D01*
X4275000Y2556587D01*
%TF.MD5,a84fb7918d021e18bfef3d2d77f7e5f2*%
M02*
