%TF.GenerationSoftware,Altium Limited,Altium Designer,25.8.1 (18)*%
G04 Layer_Color=2752767*
%FSLAX45Y45*%
%MOMM*%
%TF.SameCoordinates,E65FC597-5470-48E6-A3C5-A0BB56F9C58A*%
%TF.FilePolarity,Positive*%
%TF.FileFunction,Drawing*%
%TF.Part,Single*%
G01*
G75*
%TA.AperFunction,NonConductor*%
%ADD65C,0.12700*%
%ADD104C,0.16933*%
D65*
X2474600Y2075600D02*
Y2050200D01*
X2525400D01*
Y2075600D01*
X2550800D01*
Y2126400D01*
X2525400D01*
Y2151800D01*
X2474600D01*
Y2126400D01*
X2449200D01*
Y2075600D01*
X2474600D01*
X167500Y2111200D02*
X116700Y2212800D01*
X218300D01*
X167500Y2111200D01*
Y1247200D02*
X116700Y1348800D01*
X218300D01*
X167500Y1247200D01*
X2474600Y1821600D02*
Y1796200D01*
X2525400D01*
Y1821600D01*
X2550800D01*
Y1872400D01*
X2525400D01*
Y1897800D01*
X2474600D01*
Y1872400D01*
X2449200D01*
Y1821600D01*
X2474600D01*
X4261700Y134200D02*
Y235800D01*
X4363300D01*
Y134200D01*
X4261700D01*
X3836700D02*
Y235800D01*
X3938300D01*
Y134200D01*
X3836700D01*
X2474600Y1567600D02*
Y1542200D01*
X2525400D01*
Y1567600D01*
X2550800D01*
Y1618400D01*
X2525400D01*
Y1643800D01*
X2474600D01*
Y1618400D01*
X2449200D01*
Y1567600D01*
X2474600D01*
X1311700Y131700D02*
Y233300D01*
X1413300D01*
Y131700D01*
X1311700D01*
X886700D02*
Y233300D01*
X988300D01*
Y131700D01*
X886700D01*
X2611700D02*
Y233300D01*
X2713300D01*
Y131700D01*
X2611700D01*
X2186700D02*
Y233300D01*
X2288300D01*
Y131700D01*
X2186700D01*
X759200Y3174200D02*
Y3275800D01*
X860800D01*
Y3174200D01*
X759200D01*
X1439200D02*
Y3275800D01*
X1540800D01*
Y3174200D01*
X1439200D01*
X124200Y124200D02*
X149600Y175000D01*
X124200Y225800D01*
X175000Y200400D01*
X225800Y225800D01*
X200400Y175000D01*
X225800Y124200D01*
X175000Y149600D01*
X124200Y124200D01*
X2474600Y1313600D02*
Y1288200D01*
X2525400D01*
Y1313600D01*
X2550800D01*
Y1364400D01*
X2525400D01*
Y1389800D01*
X2474600D01*
Y1364400D01*
X2449200D01*
Y1313600D01*
X2474600D01*
X5124200Y124200D02*
X5149600Y175000D01*
X5124200Y225800D01*
X5175000Y200400D01*
X5225800Y225800D01*
X5200400Y175000D01*
X5225800Y124200D01*
X5175000Y149600D01*
X5124200Y124200D01*
X124200Y3224200D02*
X149600Y3275000D01*
X124200Y3325800D01*
X175000Y3300400D01*
X225800Y3325800D01*
X200400Y3275000D01*
X225800Y3224200D01*
X175000Y3249600D01*
X124200Y3224200D01*
X5124200D02*
X5149600Y3275000D01*
X5124200Y3325800D01*
X5175000Y3300400D01*
X5225800Y3325800D01*
X5200400Y3275000D01*
X5225800Y3224200D01*
X5175000Y3249600D01*
X5124200Y3224200D01*
X824200Y1024200D02*
X849600D01*
X875000Y1049600D01*
X900400Y1024200D01*
X925800D01*
Y1049600D01*
X900400Y1075000D01*
X925800Y1100400D01*
Y1125800D01*
X900400D01*
X875000Y1100400D01*
X849600Y1125800D01*
X824200D01*
Y1100400D01*
X849600Y1075000D01*
X824200Y1049600D01*
Y1024200D01*
X694200Y1574200D02*
X719600D01*
X745000Y1599600D01*
X770400Y1574200D01*
X795800D01*
Y1599600D01*
X770400Y1625000D01*
X795800Y1650400D01*
Y1675800D01*
X770400D01*
X745000Y1650400D01*
X719600Y1675800D01*
X694200D01*
Y1650400D01*
X719600Y1625000D01*
X694200Y1599600D01*
Y1574200D01*
X999200Y2349200D02*
X1024600D01*
X1050000Y2374600D01*
X1075400Y2349200D01*
X1100800D01*
Y2374600D01*
X1075400Y2400000D01*
X1100800Y2425400D01*
Y2450800D01*
X1075400D01*
X1050000Y2425400D01*
X1024600Y2450800D01*
X999200D01*
Y2425400D01*
X1024600Y2400000D01*
X999200Y2374600D01*
Y2349200D01*
X1356447Y2625500D02*
X1381847D01*
X1407247Y2650900D01*
X1432647Y2625500D01*
X1458047D01*
Y2650900D01*
X1432647Y2676300D01*
X1458047Y2701700D01*
Y2727100D01*
X1432647D01*
X1407247Y2701700D01*
X1381847Y2727100D01*
X1356447D01*
Y2701700D01*
X1381847Y2676300D01*
X1356447Y2650900D01*
Y2625500D01*
X607792Y2378936D02*
X633192D01*
X658592Y2404336D01*
X683992Y2378936D01*
X709392D01*
Y2404336D01*
X683992Y2429736D01*
X709392Y2455136D01*
Y2480536D01*
X683992D01*
X658592Y2455136D01*
X633192Y2480536D01*
X607792D01*
Y2455136D01*
X633192Y2429736D01*
X607792Y2404336D01*
Y2378936D01*
X3249200Y2749200D02*
X3274600D01*
X3300000Y2774600D01*
X3325400Y2749200D01*
X3350800D01*
Y2774600D01*
X3325400Y2800000D01*
X3350800Y2825400D01*
Y2850800D01*
X3325400D01*
X3300000Y2825400D01*
X3274600Y2850800D01*
X3249200D01*
Y2825400D01*
X3274600Y2800000D01*
X3249200Y2774600D01*
Y2749200D01*
X3272044Y2889057D02*
X3297444D01*
X3322844Y2914457D01*
X3348244Y2889057D01*
X3373644D01*
Y2914457D01*
X3348244Y2939857D01*
X3373644Y2965257D01*
Y2990657D01*
X3348244D01*
X3322844Y2965257D01*
X3297444Y2990657D01*
X3272044D01*
Y2965257D01*
X3297444Y2939857D01*
X3272044Y2914457D01*
Y2889057D01*
X4749200Y124200D02*
X4774600D01*
X4800000Y149600D01*
X4825400Y124200D01*
X4850800D01*
Y149600D01*
X4825400Y175000D01*
X4850800Y200400D01*
Y225800D01*
X4825400D01*
X4800000Y200400D01*
X4774600Y225800D01*
X4749200D01*
Y200400D01*
X4774600Y175000D01*
X4749200Y149600D01*
Y124200D01*
X3099200Y1799200D02*
X3124600D01*
X3150000Y1824600D01*
X3175400Y1799200D01*
X3200800D01*
Y1824600D01*
X3175400Y1850000D01*
X3200800Y1875400D01*
Y1900800D01*
X3175400D01*
X3150000Y1875400D01*
X3124600Y1900800D01*
X3099200D01*
Y1875400D01*
X3124600Y1850000D01*
X3099200Y1824600D01*
Y1799200D01*
X2269200Y2189200D02*
X2294600D01*
X2320000Y2214600D01*
X2345400Y2189200D01*
X2370800D01*
Y2214600D01*
X2345400Y2240000D01*
X2370800Y2265400D01*
Y2290800D01*
X2345400D01*
X2320000Y2265400D01*
X2294600Y2290800D01*
X2269200D01*
Y2265400D01*
X2294600Y2240000D01*
X2269200Y2214600D01*
Y2189200D01*
X1153960Y2820200D02*
X1179360D01*
X1204760Y2845600D01*
X1230160Y2820200D01*
X1255560D01*
Y2845600D01*
X1230160Y2871000D01*
X1255560Y2896400D01*
Y2921800D01*
X1230160D01*
X1204760Y2896400D01*
X1179360Y2921800D01*
X1153960D01*
Y2896400D01*
X1179360Y2871000D01*
X1153960Y2845600D01*
Y2820200D01*
X4072279Y2205379D02*
X4097679D01*
X4123079Y2230779D01*
X4148479Y2205379D01*
X4173879D01*
Y2230779D01*
X4148479Y2256179D01*
X4173879Y2281579D01*
Y2306979D01*
X4148479D01*
X4123079Y2281579D01*
X4097679Y2306979D01*
X4072279D01*
Y2281579D01*
X4097679Y2256179D01*
X4072279Y2230779D01*
Y2205379D01*
X4299200Y2324200D02*
X4324600D01*
X4350000Y2349600D01*
X4375400Y2324200D01*
X4400800D01*
Y2349600D01*
X4375400Y2375000D01*
X4400800Y2400400D01*
Y2425800D01*
X4375400D01*
X4350000Y2400400D01*
X4324600Y2425800D01*
X4299200D01*
Y2400400D01*
X4324600Y2375000D01*
X4299200Y2349600D01*
Y2324200D01*
X4309200Y1879200D02*
X4334600D01*
X4360000Y1904600D01*
X4385400Y1879200D01*
X4410800D01*
Y1904600D01*
X4385400Y1930000D01*
X4410800Y1955400D01*
Y1980800D01*
X4385400D01*
X4360000Y1955400D01*
X4334600Y1980800D01*
X4309200D01*
Y1955400D01*
X4334600Y1930000D01*
X4309200Y1904600D01*
Y1879200D01*
X2138829Y363829D02*
X2164229D01*
X2189629Y389229D01*
X2215029Y363829D01*
X2240429D01*
Y389229D01*
X2215029Y414629D01*
X2240429Y440029D01*
Y465429D01*
X2215029D01*
X2189629Y440029D01*
X2164229Y465429D01*
X2138829D01*
Y440029D01*
X2164229Y414629D01*
X2138829Y389229D01*
Y363829D01*
X4999200Y474200D02*
X5024600D01*
X5050000Y499600D01*
X5075400Y474200D01*
X5100800D01*
Y499600D01*
X5075400Y525000D01*
X5100800Y550400D01*
Y575800D01*
X5075400D01*
X5050000Y550400D01*
X5024600Y575800D01*
X4999200D01*
Y550400D01*
X5024600Y525000D01*
X4999200Y499600D01*
Y474200D01*
X3713407Y2189910D02*
X3738807D01*
X3764207Y2215310D01*
X3789607Y2189910D01*
X3815007D01*
Y2215310D01*
X3789607Y2240710D01*
X3815007Y2266110D01*
Y2291510D01*
X3789607D01*
X3764207Y2266110D01*
X3738807Y2291510D01*
X3713407D01*
Y2266110D01*
X3738807Y2240710D01*
X3713407Y2215310D01*
Y2189910D01*
X3626295Y2351297D02*
X3651695D01*
X3677095Y2376697D01*
X3702495Y2351297D01*
X3727895D01*
Y2376697D01*
X3702495Y2402097D01*
X3727895Y2427497D01*
Y2452897D01*
X3702495D01*
X3677095Y2427497D01*
X3651695Y2452897D01*
X3626295D01*
Y2427497D01*
X3651695Y2402097D01*
X3626295Y2376697D01*
Y2351297D01*
X3424200Y2341900D02*
X3449600D01*
X3475000Y2367300D01*
X3500400Y2341900D01*
X3525800D01*
Y2367300D01*
X3500400Y2392700D01*
X3525800Y2418100D01*
Y2443500D01*
X3500400D01*
X3475000Y2418100D01*
X3449600Y2443500D01*
X3424200D01*
Y2418100D01*
X3449600Y2392700D01*
X3424200Y2367300D01*
Y2341900D01*
X999200Y899200D02*
X1024600D01*
X1050000Y924600D01*
X1075400Y899200D01*
X1100800D01*
Y924600D01*
X1075400Y950000D01*
X1100800Y975400D01*
Y1000800D01*
X1075400D01*
X1050000Y975400D01*
X1024600Y1000800D01*
X999200D01*
Y975400D01*
X1024600Y950000D01*
X999200Y924600D01*
Y899200D01*
X4699200Y3189600D02*
X4724600D01*
X4750000Y3215000D01*
X4775400Y3189600D01*
X4800800D01*
Y3215000D01*
X4775400Y3240400D01*
X4800800Y3265800D01*
Y3291200D01*
X4775400D01*
X4750000Y3265800D01*
X4724600Y3291200D01*
X4699200D01*
Y3265800D01*
X4724600Y3240400D01*
X4699200Y3215000D01*
Y3189600D01*
X1124200Y2574200D02*
X1149600D01*
X1175000Y2599600D01*
X1200400Y2574200D01*
X1225800D01*
Y2599600D01*
X1200400Y2625000D01*
X1225800Y2650400D01*
Y2675800D01*
X1200400D01*
X1175000Y2650400D01*
X1149600Y2675800D01*
X1124200D01*
Y2650400D01*
X1149600Y2625000D01*
X1124200Y2599600D01*
Y2574200D01*
X3367071Y1937071D02*
X3392471D01*
X3417871Y1962471D01*
X3443271Y1937071D01*
X3468671D01*
Y1962471D01*
X3443271Y1987871D01*
X3468671Y2013271D01*
Y2038671D01*
X3443271D01*
X3417871Y2013271D01*
X3392471Y2038671D01*
X3367071D01*
Y2013271D01*
X3392471Y1987871D01*
X3367071Y1962471D01*
Y1937071D01*
X1399200Y1899200D02*
X1424600D01*
X1450000Y1924600D01*
X1475400Y1899200D01*
X1500800D01*
Y1924600D01*
X1475400Y1950000D01*
X1500800Y1975400D01*
Y2000800D01*
X1475400D01*
X1450000Y1975400D01*
X1424600Y2000800D01*
X1399200D01*
Y1975400D01*
X1424600Y1950000D01*
X1399200Y1924600D01*
Y1899200D01*
Y1749200D02*
X1424600D01*
X1450000Y1774600D01*
X1475400Y1749200D01*
X1500800D01*
Y1774600D01*
X1475400Y1800000D01*
X1500800Y1825400D01*
Y1850800D01*
X1475400D01*
X1450000Y1825400D01*
X1424600Y1850800D01*
X1399200D01*
Y1825400D01*
X1424600Y1800000D01*
X1399200Y1774600D01*
Y1749200D01*
X1699200Y2649200D02*
X1724600D01*
X1750000Y2674600D01*
X1775400Y2649200D01*
X1800800D01*
Y2674600D01*
X1775400Y2700000D01*
X1800800Y2725400D01*
Y2750800D01*
X1775400D01*
X1750000Y2725400D01*
X1724600Y2750800D01*
X1699200D01*
Y2725400D01*
X1724600Y2700000D01*
X1699200Y2674600D01*
Y2649200D01*
X2024200Y3199200D02*
X2049600D01*
X2075000Y3224600D01*
X2100400Y3199200D01*
X2125800D01*
Y3224600D01*
X2100400Y3250000D01*
X2125800Y3275400D01*
Y3300800D01*
X2100400D01*
X2075000Y3275400D01*
X2049600Y3300800D01*
X2024200D01*
Y3275400D01*
X2049600Y3250000D01*
X2024200Y3224600D01*
Y3199200D01*
X3869807Y406500D02*
X3895207D01*
X3920607Y431900D01*
X3946007Y406500D01*
X3971407D01*
Y431900D01*
X3946007Y457300D01*
X3971407Y482700D01*
Y508100D01*
X3946007D01*
X3920607Y482700D01*
X3895207Y508100D01*
X3869807D01*
Y482700D01*
X3895207Y457300D01*
X3869807Y431900D01*
Y406500D01*
X1399200Y724200D02*
X1424600D01*
X1450000Y749600D01*
X1475400Y724200D01*
X1500800D01*
Y749600D01*
X1475400Y775000D01*
X1500800Y800400D01*
Y825800D01*
X1475400D01*
X1450000Y800400D01*
X1424600Y825800D01*
X1399200D01*
Y800400D01*
X1424600Y775000D01*
X1399200Y749600D01*
Y724200D01*
X4158342Y1333945D02*
X4183742D01*
X4209142Y1359345D01*
X4234542Y1333945D01*
X4259942D01*
Y1359345D01*
X4234542Y1384745D01*
X4259942Y1410145D01*
Y1435545D01*
X4234542D01*
X4209142Y1410145D01*
X4183742Y1435545D01*
X4158342D01*
Y1410145D01*
X4183742Y1384745D01*
X4158342Y1359345D01*
Y1333945D01*
X4429200Y1389200D02*
X4454600D01*
X4480000Y1414600D01*
X4505400Y1389200D01*
X4530800D01*
Y1414600D01*
X4505400Y1440000D01*
X4530800Y1465400D01*
Y1490800D01*
X4505400D01*
X4480000Y1465400D01*
X4454600Y1490800D01*
X4429200D01*
Y1465400D01*
X4454600Y1440000D01*
X4429200Y1414600D01*
Y1389200D01*
X4083360Y1217460D02*
X4108760D01*
X4134160Y1242860D01*
X4159560Y1217460D01*
X4184960D01*
Y1242860D01*
X4159560Y1268260D01*
X4184960Y1293660D01*
Y1319060D01*
X4159560D01*
X4134160Y1293660D01*
X4108760Y1319060D01*
X4083360D01*
Y1293660D01*
X4108760Y1268260D01*
X4083360Y1242860D01*
Y1217460D01*
X4424200Y1049200D02*
X4449600D01*
X4475000Y1074600D01*
X4500400Y1049200D01*
X4525800D01*
Y1074600D01*
X4500400Y1100000D01*
X4525800Y1125400D01*
Y1150800D01*
X4500400D01*
X4475000Y1125400D01*
X4449600Y1150800D01*
X4424200D01*
Y1125400D01*
X4449600Y1100000D01*
X4424200Y1074600D01*
Y1049200D01*
X3499200Y1424200D02*
X3524600D01*
X3550000Y1449600D01*
X3575400Y1424200D01*
X3600800D01*
Y1449600D01*
X3575400Y1475000D01*
X3600800Y1500400D01*
Y1525800D01*
X3575400D01*
X3550000Y1500400D01*
X3524600Y1525800D01*
X3499200D01*
Y1500400D01*
X3524600Y1475000D01*
X3499200Y1449600D01*
Y1424200D01*
X3242069Y1412811D02*
X3267469D01*
X3292869Y1438211D01*
X3318269Y1412811D01*
X3343669D01*
Y1438211D01*
X3318269Y1463611D01*
X3343669Y1489011D01*
Y1514411D01*
X3318269D01*
X3292869Y1489011D01*
X3267469Y1514411D01*
X3242069D01*
Y1489011D01*
X3267469Y1463611D01*
X3242069Y1438211D01*
Y1412811D01*
X4254200Y2974200D02*
X4279600D01*
X4305000Y2999600D01*
X4330400Y2974200D01*
X4355800D01*
Y2999600D01*
X4330400Y3025000D01*
X4355800Y3050400D01*
Y3075800D01*
X4330400D01*
X4305000Y3050400D01*
X4279600Y3075800D01*
X4254200D01*
Y3050400D01*
X4279600Y3025000D01*
X4254200Y2999600D01*
Y2974200D01*
X4396041Y1599959D02*
X4421441D01*
X4446841Y1625359D01*
X4472241Y1599959D01*
X4497641D01*
Y1625359D01*
X4472241Y1650759D01*
X4497641Y1676159D01*
Y1701559D01*
X4472241D01*
X4446841Y1676159D01*
X4421441Y1701559D01*
X4396041D01*
Y1676159D01*
X4421441Y1650759D01*
X4396041Y1625359D01*
Y1599959D01*
X3474200Y2899200D02*
X3499600D01*
X3525000Y2924600D01*
X3550400Y2899200D01*
X3575800D01*
Y2924600D01*
X3550400Y2950000D01*
X3575800Y2975400D01*
Y3000800D01*
X3550400D01*
X3525000Y2975400D01*
X3499600Y3000800D01*
X3474200D01*
Y2975400D01*
X3499600Y2950000D01*
X3474200Y2924600D01*
Y2899200D01*
X1768640Y1199680D02*
X1794040D01*
X1819440Y1225080D01*
X1844840Y1199680D01*
X1870240D01*
Y1225080D01*
X1844840Y1250480D01*
X1870240Y1275880D01*
Y1301280D01*
X1844840D01*
X1819440Y1275880D01*
X1794040Y1301280D01*
X1768640D01*
Y1275880D01*
X1794040Y1250480D01*
X1768640Y1225080D01*
Y1199680D01*
X2224414Y1254839D02*
X2249814D01*
X2275214Y1280239D01*
X2300614Y1254839D01*
X2326014D01*
Y1280239D01*
X2300614Y1305639D01*
X2326014Y1331039D01*
Y1356439D01*
X2300614D01*
X2275214Y1331039D01*
X2249814Y1356439D01*
X2224414D01*
Y1331039D01*
X2249814Y1305639D01*
X2224414Y1280239D01*
Y1254839D01*
X1299200Y1374200D02*
X1324600D01*
X1350000Y1399600D01*
X1375400Y1374200D01*
X1400800D01*
Y1399600D01*
X1375400Y1425000D01*
X1400800Y1450400D01*
Y1475800D01*
X1375400D01*
X1350000Y1450400D01*
X1324600Y1475800D01*
X1299200D01*
Y1450400D01*
X1324600Y1425000D01*
X1299200Y1399600D01*
Y1374200D01*
X3877720Y2223300D02*
X3903120D01*
X3928520Y2248700D01*
X3953920Y2223300D01*
X3979320D01*
Y2248700D01*
X3953920Y2274100D01*
X3979320Y2299500D01*
Y2324900D01*
X3953920D01*
X3928520Y2299500D01*
X3903120Y2324900D01*
X3877720D01*
Y2299500D01*
X3903120Y2274100D01*
X3877720Y2248700D01*
Y2223300D01*
X4874200Y2874200D02*
X4899600D01*
X4925000Y2899600D01*
X4950400Y2874200D01*
X4975800D01*
Y2899600D01*
X4950400Y2925000D01*
X4975800Y2950400D01*
Y2975800D01*
X4950400D01*
X4925000Y2950400D01*
X4899600Y2975800D01*
X4874200D01*
Y2950400D01*
X4899600Y2925000D01*
X4874200Y2899600D01*
Y2874200D01*
X999200Y2819200D02*
X1024600D01*
X1050000Y2844600D01*
X1075400Y2819200D01*
X1100800D01*
Y2844600D01*
X1075400Y2870000D01*
X1100800Y2895400D01*
Y2920800D01*
X1075400D01*
X1050000Y2895400D01*
X1024600Y2920800D01*
X999200D01*
Y2895400D01*
X1024600Y2870000D01*
X999200Y2844600D01*
Y2819200D01*
X324571Y2648829D02*
X349971D01*
X375371Y2674229D01*
X400771Y2648829D01*
X426171D01*
Y2674229D01*
X400771Y2699629D01*
X426171Y2725029D01*
Y2750429D01*
X400771D01*
X375371Y2725029D01*
X349971Y2750429D01*
X324571D01*
Y2725029D01*
X349971Y2699629D01*
X324571Y2674229D01*
Y2648829D01*
X209200Y2219200D02*
X234600D01*
X260000Y2244600D01*
X285400Y2219200D01*
X310800D01*
Y2244600D01*
X285400Y2270000D01*
X310800Y2295400D01*
Y2320800D01*
X285400D01*
X260000Y2295400D01*
X234600Y2320800D01*
X209200D01*
Y2295400D01*
X234600Y2270000D01*
X209200Y2244600D01*
Y2219200D01*
X1375793Y2237660D02*
X1401193D01*
X1426593Y2263060D01*
X1451993Y2237660D01*
X1477393D01*
Y2263060D01*
X1451993Y2288460D01*
X1477393Y2313860D01*
Y2339260D01*
X1451993D01*
X1426593Y2313860D01*
X1401193Y2339260D01*
X1375793D01*
Y2313860D01*
X1401193Y2288460D01*
X1375793Y2263060D01*
Y2237660D01*
X2499200Y2849200D02*
X2524600D01*
X2550000Y2874600D01*
X2575400Y2849200D01*
X2600800D01*
Y2874600D01*
X2575400Y2900000D01*
X2600800Y2925400D01*
Y2950800D01*
X2575400D01*
X2550000Y2925400D01*
X2524600Y2950800D01*
X2499200D01*
Y2925400D01*
X2524600Y2900000D01*
X2499200Y2874600D01*
Y2849200D01*
X3947960Y1247620D02*
X3973360D01*
X3998760Y1273020D01*
X4024160Y1247620D01*
X4049560D01*
Y1273020D01*
X4024160Y1298420D01*
X4049560Y1323820D01*
Y1349220D01*
X4024160D01*
X3998760Y1323820D01*
X3973360Y1349220D01*
X3947960D01*
Y1323820D01*
X3973360Y1298420D01*
X3947960Y1273020D01*
Y1247620D01*
X1399200Y1424200D02*
X1424600D01*
X1450000Y1449600D01*
X1475400Y1424200D01*
X1500800D01*
Y1449600D01*
X1475400Y1475000D01*
X1500800Y1500400D01*
Y1525800D01*
X1475400D01*
X1450000Y1500400D01*
X1424600Y1525800D01*
X1399200D01*
Y1500400D01*
X1424600Y1475000D01*
X1399200Y1449600D01*
Y1424200D01*
X1656880Y3175800D02*
X1682280D01*
X1707680Y3201200D01*
X1733080Y3175800D01*
X1758480D01*
Y3201200D01*
X1733080Y3226600D01*
X1758480Y3252000D01*
Y3277400D01*
X1733080D01*
X1707680Y3252000D01*
X1682280Y3277400D01*
X1656880D01*
Y3252000D01*
X1682280Y3226600D01*
X1656880Y3201200D01*
Y3175800D01*
X2024200Y2374200D02*
X2049600D01*
X2075000Y2399600D01*
X2100400Y2374200D01*
X2125800D01*
Y2399600D01*
X2100400Y2425000D01*
X2125800Y2450400D01*
Y2475800D01*
X2100400D01*
X2075000Y2450400D01*
X2049600Y2475800D01*
X2024200D01*
Y2450400D01*
X2049600Y2425000D01*
X2024200Y2399600D01*
Y2374200D01*
X2749200Y2824200D02*
X2774600D01*
X2800000Y2849600D01*
X2825400Y2824200D01*
X2850800D01*
Y2849600D01*
X2825400Y2875000D01*
X2850800Y2900400D01*
Y2925800D01*
X2825400D01*
X2800000Y2900400D01*
X2774600Y2925800D01*
X2749200D01*
Y2900400D01*
X2774600Y2875000D01*
X2749200Y2849600D01*
Y2824200D01*
X1899200Y2199200D02*
X1924600D01*
X1950000Y2224600D01*
X1975400Y2199200D01*
X2000800D01*
Y2224600D01*
X1975400Y2250000D01*
X2000800Y2275400D01*
Y2300800D01*
X1975400D01*
X1950000Y2275400D01*
X1924600Y2300800D01*
X1899200D01*
Y2275400D01*
X1924600Y2250000D01*
X1899200Y2224600D01*
Y2199200D01*
X701840Y270040D02*
X727240D01*
X752640Y295440D01*
X778040Y270040D01*
X803440D01*
Y295440D01*
X778040Y320840D01*
X803440Y346240D01*
Y371640D01*
X778040D01*
X752640Y346240D01*
X727240Y371640D01*
X701840D01*
Y346240D01*
X727240Y320840D01*
X701840Y295440D01*
Y270040D01*
X400758Y1715300D02*
X426158D01*
X451558Y1740700D01*
X476958Y1715300D01*
X502358D01*
Y1740700D01*
X476958Y1766100D01*
X502358Y1791500D01*
Y1816900D01*
X476958D01*
X451558Y1791500D01*
X426158Y1816900D01*
X400758D01*
Y1791500D01*
X426158Y1766100D01*
X400758Y1740700D01*
Y1715300D01*
X699200Y549200D02*
X724600D01*
X750000Y574600D01*
X775400Y549200D01*
X800800D01*
Y574600D01*
X775400Y600000D01*
X800800Y625400D01*
Y650800D01*
X775400D01*
X750000Y625400D01*
X724600Y650800D01*
X699200D01*
Y625400D01*
X724600Y600000D01*
X699200Y574600D01*
Y549200D01*
X4791240Y3269780D02*
X4816640D01*
X4842040Y3295180D01*
X4867440Y3269780D01*
X4892840D01*
Y3295180D01*
X4867440Y3320580D01*
X4892840Y3345980D01*
Y3371380D01*
X4867440D01*
X4842040Y3345980D01*
X4816640Y3371380D01*
X4791240D01*
Y3345980D01*
X4816640Y3320580D01*
X4791240Y3295180D01*
Y3269780D01*
D104*
X618300Y2162000D02*
G03*
X618300Y2162000I-50800J0D01*
G01*
Y1298000D02*
G03*
X618300Y1298000I-50800J0D01*
G01*
%TF.MD5,9adc3d6f304e2ce930665a2c3e63725a*%
M02*
