%TF.GenerationSoftware,Altium Limited,Altium Designer,25.8.1 (18)*%
G04 Layer_Color=16711935*
%FSLAX45Y45*%
%MOMM*%
%TF.SameCoordinates,E65FC597-5470-48E6-A3C5-A0BB56F9C58A*%
%TF.FilePolarity,Positive*%
%TF.FileFunction,Other,Top_3D_Body*%
%TF.Part,Single*%
G01*
G75*
%TA.AperFunction,NonConductor*%
%ADD62C,0.20000*%
%ADD65C,0.12700*%
D62*
X4772000Y298000D02*
G03*
X4772000Y298000I-10000J0D01*
G01*
X2710000Y2120000D02*
G03*
X2710000Y2120000I-10000J0D01*
G01*
X3785000Y605000D02*
X3865000D01*
X3785000Y445000D02*
Y605000D01*
Y445000D02*
X3865000D01*
Y605000D01*
X4665000Y3055000D02*
Y3145000D01*
Y3055000D02*
X4835000D01*
Y3145000D01*
X4665000D02*
X4835000D01*
X4520000Y415000D02*
Y585000D01*
X4430000Y415000D02*
X4520000D01*
X4430000D02*
Y585000D01*
X4520000D01*
X4355000Y2865000D02*
X4445000D01*
Y3035000D01*
X4355000D02*
X4445000D01*
X4355000Y2865000D02*
Y3035000D01*
X4135000Y605000D02*
X4215000D01*
X4135000Y445000D02*
Y605000D01*
Y445000D02*
X4215000D01*
Y605000D01*
X3634000Y2837810D02*
X3759000D01*
Y3037810D01*
X3634000D02*
X3759000D01*
X3634000Y2837810D02*
Y3037810D01*
X3465000Y2835411D02*
Y2995411D01*
X3385000Y2835411D02*
X3465000D01*
X3385000D02*
Y2995411D01*
X3465000D01*
X4641640Y2922900D02*
X4811641D01*
Y2832900D02*
Y2922900D01*
X4641640Y2832900D02*
X4811641D01*
X4641640D02*
Y2922900D01*
X5379000Y820000D02*
Y2630000D01*
X2819000Y820000D02*
X5379000D01*
X2819000D02*
Y2630000D01*
X5379000D01*
X2920000Y2987500D02*
Y3162500D01*
X3230000D01*
Y2987500D02*
Y3162500D01*
X2920000Y2987500D02*
X3230000D01*
X4140583Y2868107D02*
Y3028107D01*
X4220583D01*
Y2868107D02*
Y3028107D01*
X4140583Y2868107D02*
X4220583D01*
X3995583D02*
Y3028107D01*
X3915583Y2868107D02*
X3995583D01*
X3915583D02*
Y3028107D01*
X3995583D01*
D65*
X4725000Y365000D02*
X4925000D01*
Y585000D01*
X4725000D02*
X4925000D01*
X4725000Y365000D02*
Y585000D01*
X2650000Y420000D02*
Y3020000D01*
X50000Y420000D02*
X2650000D01*
X50000D02*
Y1020000D01*
Y2420000D02*
Y3020000D01*
X2650000D01*
X50000Y2420000D02*
X250000D01*
Y1020000D02*
Y2420000D01*
X50000Y1020000D02*
X250000D01*
%TF.MD5,c3401ca347c9e24db7eb319eb6fd7728*%
M02*
