%TF.GenerationSoftware,Altium Limited,Altium Designer,25.8.1 (18)*%
G04 Layer_Physical_Order=2*
G04 Layer_Color=36540*
%FSLAX45Y45*%
%MOMM*%
%TF.SameCoordinates,E65FC597-5470-48E6-A3C5-A0BB56F9C58A*%
%TF.FilePolarity,Positive*%
%TF.FileFunction,Copper,L2,Inr,Signal*%
%TF.Part,Single*%
G01*
G75*
%TA.AperFunction,Conductor*%
%ADD10C,0.25400*%
%TA.AperFunction,ComponentPad*%
G04:AMPARAMS|DCode=23|XSize=1mm|YSize=1.8mm|CornerRadius=0.5mm|HoleSize=0mm|Usage=FLASHONLY|Rotation=90.000|XOffset=0mm|YOffset=0mm|HoleType=Round|Shape=RoundedRectangle|*
%AMROUNDEDRECTD23*
21,1,1.00000,0.80000,0,0,90.0*
21,1,0.00000,1.80000,0,0,90.0*
1,1,1.00000,0.40000,0.00000*
1,1,1.00000,0.40000,0.00000*
1,1,1.00000,-0.40000,0.00000*
1,1,1.00000,-0.40000,0.00000*
%
%ADD23ROUNDEDRECTD23*%
G04:AMPARAMS|DCode=24|XSize=1mm|YSize=2.2mm|CornerRadius=0.5mm|HoleSize=0mm|Usage=FLASHONLY|Rotation=90.000|XOffset=0mm|YOffset=0mm|HoleType=Round|Shape=RoundedRectangle|*
%AMROUNDEDRECTD24*
21,1,1.00000,1.20000,0,0,90.0*
21,1,0.00000,2.20000,0,0,90.0*
1,1,1.00000,0.60000,0.00000*
1,1,1.00000,0.60000,0.00000*
1,1,1.00000,-0.60000,0.00000*
1,1,1.00000,-0.60000,0.00000*
%
%ADD24ROUNDEDRECTD24*%
%ADD25C,1.50800*%
%ADD26C,0.90000*%
%TA.AperFunction,ViaPad*%
%ADD27C,1.52400*%
%ADD28C,0.70000*%
%TA.AperFunction,Conductor*%
%ADD29C,0.35400*%
D10*
X875000Y1189479D02*
G03*
X869920Y1204719I-25400J0D01*
G01*
X350000Y1735360D02*
G03*
X357327Y1717672I25400J161D01*
G01*
X869920Y1204719D02*
G03*
X867560Y1207440I-20321J-15240D01*
G01*
X355080Y2354719D02*
G03*
X350000Y2339479I20320J-15240D01*
G01*
X357439Y2357439D02*
G03*
X355080Y2354719I17961J-17961D01*
G01*
X929719Y2619920D02*
G03*
X914479Y2625000I-15240J-20320D01*
G01*
X932387Y2617613D02*
G03*
X929719Y2619920I-17909J-18013D01*
G01*
X1050000Y2489479D02*
G03*
X1044920Y2504719I-25400J0D01*
G01*
D02*
G03*
X1042613Y2507387I-20321J-15240D01*
G01*
X620281Y2619920D02*
G03*
X617613Y2617612I15240J-20321D01*
G01*
X635521Y2625000D02*
G03*
X620281Y2619920I0J-25400D01*
G01*
X1550000Y1527805D02*
G03*
X1542561Y1545766I-25400J0D01*
G01*
X1550000Y1310521D02*
G03*
X1557439Y1292561I25400J0D01*
G01*
X2732439Y1717560D02*
G03*
X2714479Y1725000I-17960J-17961D01*
G01*
X2254459Y1733346D02*
G03*
X2272169Y1725996I17871J18049D01*
G01*
X2254440Y1733364D02*
G03*
X2254458Y1733346I17847J18073D01*
G01*
X2981670Y1468691D02*
G03*
X2996910Y1463611I15240J20320D01*
G01*
X2979001Y1470999D02*
G03*
X2981670Y1468691I17909J18013D01*
G01*
X2304719Y2694920D02*
G03*
X2289479Y2700000I-15240J-20320D01*
G01*
X2307391Y2692609D02*
G03*
X2304719Y2694920I-17912J-18010D01*
G01*
X4068311Y1225000D02*
G03*
X4086231Y1232399I0J25400D01*
G01*
X1837521Y1232399D02*
G03*
X1855441Y1225000I17920J18001D01*
G01*
X4132613Y1268260D02*
G03*
X4114692Y1260861I0J-25400D01*
G01*
X357327Y1717672D02*
X867560Y1207440D01*
X350000Y1735360D02*
Y2339479D01*
X875000Y1100000D02*
Y1189479D01*
X357439Y2357439D02*
X617613Y2617612D01*
X1050000Y2400000D02*
Y2489479D01*
X635521Y2625000D02*
X914479D01*
X932387Y2617612D02*
X1042612Y2507387D01*
X1550000Y1310521D02*
Y1527805D01*
X1557439Y1292561D02*
X1833144Y1016856D01*
X658592Y2429736D02*
X1542561Y1545766D01*
X1204760Y2783045D02*
X2254369Y1733434D01*
X2732439Y1717560D02*
X2979001Y1470999D01*
X2500000Y1725000D02*
X2714479Y1724999D01*
X2254369Y1733434D02*
X2254440Y1733364D01*
X2272169Y1725995D02*
X2500000Y1725000D01*
X2996910Y1463611D02*
X3292869D01*
X1750000Y2700000D02*
X2289479D01*
X2400085Y2599915D02*
X3150000Y1850000D01*
X2307391Y2692609D02*
X2400085Y2599915D01*
X3150000Y1850000D02*
Y2250000D01*
X3525000Y2625000D01*
Y2950000D01*
X4887931D01*
X4912931Y2925000D01*
X4925000D01*
X1204760Y2783045D02*
Y2871000D01*
X4391856Y1016856D02*
X4475000Y1100000D01*
X1833144Y1016856D02*
X4391856D01*
X4086231Y1232399D02*
X4114692Y1260861D01*
X1855441Y1225000D02*
X4068311D01*
X4132613Y1268260D02*
X4134160D01*
X1819440Y1250480D02*
X1837521Y1232399D01*
X4123079Y2256179D02*
X4125760Y2253498D01*
Y1624222D02*
Y2253498D01*
X4571158Y2800000D02*
X4950000D01*
X4003196Y1302856D02*
Y2232038D01*
X4571158Y2800000D01*
X3621535Y2354278D02*
X3669354Y2402097D01*
X3603574Y2354278D02*
X3621535D01*
X3550000Y2300704D02*
X3603574Y2354278D01*
X3669354Y2402097D02*
X3677095D01*
X1450000Y775000D02*
X4350000D01*
X4575000Y1000000D01*
X3946111Y1339000D02*
X3986691Y1298420D01*
X2500000Y1339000D02*
X3946111D01*
X3986691Y1298420D02*
X3998760D01*
X3550000Y1475000D02*
Y2300704D01*
X4950000Y2800000D02*
X5050000Y2900000D01*
X4843129Y3319491D02*
X5050000Y3112620D01*
Y2900000D02*
Y3112620D01*
X4125760Y1624222D02*
X4224982Y1525000D01*
X4225000D01*
X4575000Y1175000D01*
Y1000000D02*
Y1175000D01*
X3998760Y1298420D02*
X4003196Y1302856D01*
X4842040Y3319491D02*
X4843129D01*
D23*
X567500Y2162000D02*
D03*
Y1298000D02*
D03*
D24*
X167500Y2162000D02*
D03*
Y1298000D02*
D03*
D25*
X2500000Y2101000D02*
D03*
Y1847000D02*
D03*
Y1593000D02*
D03*
Y1339000D02*
D03*
D26*
X810000Y3225000D02*
D03*
X1490000D02*
D03*
D27*
X175000Y175000D02*
D03*
X5175000D02*
D03*
X175000Y3275000D02*
D03*
X5175000D02*
D03*
D28*
X875000Y1075000D02*
D03*
X745000Y1625000D02*
D03*
X1050000Y2400000D02*
D03*
X1407247Y2676300D02*
D03*
X658592Y2429736D02*
D03*
X3300000Y2800000D02*
D03*
X3322844Y2939857D02*
D03*
X4800000Y175000D02*
D03*
X3150000Y1850000D02*
D03*
X2320000Y2240000D02*
D03*
X1204760Y2871000D02*
D03*
X4123079Y2256179D02*
D03*
X4350000Y2375000D02*
D03*
X4360000Y1930000D02*
D03*
X2189629Y414629D02*
D03*
X5050000Y525000D02*
D03*
X3764207Y2240710D02*
D03*
X3677095Y2402097D02*
D03*
X3475000Y2392700D02*
D03*
X1050000Y950000D02*
D03*
X4750000Y3240400D02*
D03*
X1175000Y2625000D02*
D03*
X3417871Y1987871D02*
D03*
X1450000Y1950000D02*
D03*
Y1800000D02*
D03*
X1750000Y2700000D02*
D03*
X2075000Y3250000D02*
D03*
X3920607Y457300D02*
D03*
X1450000Y775000D02*
D03*
X4209142Y1384745D02*
D03*
X4480000Y1440000D02*
D03*
X4134160Y1268260D02*
D03*
X4475000Y1100000D02*
D03*
X3550000Y1475000D02*
D03*
X3292869Y1463611D02*
D03*
X4305000Y3025000D02*
D03*
X4446841Y1650759D02*
D03*
X3525000Y2950000D02*
D03*
X1819440Y1250480D02*
D03*
X2275214Y1305639D02*
D03*
X1350000Y1425000D02*
D03*
X3928520Y2274100D02*
D03*
X4925000Y2925000D02*
D03*
X1050000Y2870000D02*
D03*
X375371Y2699629D02*
D03*
X260000Y2270000D02*
D03*
X1426593Y2288460D02*
D03*
X2550000Y2900000D02*
D03*
X3998760Y1298420D02*
D03*
X1450000Y1475000D02*
D03*
X1707680Y3226600D02*
D03*
X2075000Y2425000D02*
D03*
X2800000Y2875000D02*
D03*
X1950000Y2250000D02*
D03*
X752640Y320840D02*
D03*
X451558Y1766100D02*
D03*
X750000Y600000D02*
D03*
X4842040Y3320580D02*
D03*
D29*
X1300000Y2975000D02*
X1777300Y2497700D01*
X1155000Y2975000D02*
X1300000D01*
X2890720Y3134280D02*
X3218380Y2806620D01*
X3293380D02*
X3300000Y2800000D01*
X3218380Y2806620D02*
X3293380D01*
X1800000Y3134280D02*
X2890720D01*
X1777300Y2497700D02*
X2302300D01*
X1050000Y2870000D02*
X1155000Y2975000D01*
X3300000Y1700000D02*
X3417871Y1817871D01*
X3100000Y1700000D02*
X3300000D01*
X2302300Y2497700D02*
X3100000Y1700000D01*
X3417871Y1817871D02*
Y1971888D01*
X3420983Y1975000D01*
X1707680Y3226600D02*
X1800000Y3134280D01*
%TF.MD5,123b1e2a806df0942136cd00e0dfda83*%
M02*
