%TF.GenerationSoftware,Altium Limited,Altium Designer,25.8.1 (18)*%
G04 Layer_Color=0*
%FSLAX45Y45*%
%MOMM*%
%TF.SameCoordinates,E65FC597-5470-48E6-A3C5-A0BB56F9C58A*%
%TF.FilePolarity,Positive*%
%TF.FileFunction,Plated,1,4,PTH,Drill*%
%TF.Part,Single*%
G01*
G75*
%TA.AperFunction,ComponentDrill*%
%ADD95C,1.00000*%
%ADD96O,1.40000X0.60000*%
%ADD97O,1.80000X0.60000*%
%TA.AperFunction,OtherDrill,Pad Free-10 (1.75mm,1.75mm)*%
%ADD98C,2.30000*%
%TA.AperFunction,OtherDrill,Pad Free-10 (51.75mm,1.75mm)*%
%ADD99C,2.30000*%
%TA.AperFunction,OtherDrill,Pad Free-10 (1.75mm,32.75mm)*%
%ADD100C,2.30000*%
%TA.AperFunction,OtherDrill,Pad Free-10 (51.75mm,32.75mm)*%
%ADD101C,2.30000*%
%TA.AperFunction,ViaDrill,NotFilled*%
%ADD102C,0.30000*%
D95*
X2500000Y2101000D02*
D03*
Y1847000D02*
D03*
Y1593000D02*
D03*
Y1339000D02*
D03*
D96*
X567500Y2162000D02*
D03*
Y1298000D02*
D03*
D97*
X167500Y2162000D02*
D03*
Y1298000D02*
D03*
D98*
X175000Y175000D02*
D03*
D99*
X5175000D02*
D03*
D100*
X175000Y3275000D02*
D03*
D101*
X5175000D02*
D03*
D102*
X875000Y1075000D02*
D03*
X745000Y1625000D02*
D03*
X1050000Y2400000D02*
D03*
X1407247Y2676300D02*
D03*
X658592Y2429736D02*
D03*
X3300000Y2800000D02*
D03*
X3322844Y2939857D02*
D03*
X4800000Y175000D02*
D03*
X3150000Y1850000D02*
D03*
X2320000Y2240000D02*
D03*
X1204760Y2871000D02*
D03*
X4123079Y2256179D02*
D03*
X4350000Y2375000D02*
D03*
X4360000Y1930000D02*
D03*
X2189629Y414629D02*
D03*
X5050000Y525000D02*
D03*
X3764207Y2240710D02*
D03*
X3677095Y2402097D02*
D03*
X3475000Y2392700D02*
D03*
X1050000Y950000D02*
D03*
X4750000Y3240400D02*
D03*
X1175000Y2625000D02*
D03*
X3417871Y1987871D02*
D03*
X1450000Y1950000D02*
D03*
Y1800000D02*
D03*
X1750000Y2700000D02*
D03*
X2075000Y3250000D02*
D03*
X3920607Y457300D02*
D03*
X1450000Y775000D02*
D03*
X4209142Y1384745D02*
D03*
X4480000Y1440000D02*
D03*
X4134160Y1268260D02*
D03*
X4475000Y1100000D02*
D03*
X3550000Y1475000D02*
D03*
X3292869Y1463611D02*
D03*
X4305000Y3025000D02*
D03*
X4446841Y1650759D02*
D03*
X3525000Y2950000D02*
D03*
X1819440Y1250480D02*
D03*
X2275214Y1305639D02*
D03*
X1350000Y1425000D02*
D03*
X3928520Y2274100D02*
D03*
X4925000Y2925000D02*
D03*
X1050000Y2870000D02*
D03*
X375371Y2699629D02*
D03*
X260000Y2270000D02*
D03*
X1426593Y2288460D02*
D03*
X2550000Y2900000D02*
D03*
X3998760Y1298420D02*
D03*
X1450000Y1475000D02*
D03*
X1707680Y3226600D02*
D03*
X2075000Y2425000D02*
D03*
X2800000Y2875000D02*
D03*
X1950000Y2250000D02*
D03*
X752640Y320840D02*
D03*
X451558Y1766100D02*
D03*
X750000Y600000D02*
D03*
X4842040Y3320580D02*
D03*
%TF.MD5,80b7d5a573a39058f983ba67b38fa9ff*%
M02*
