%TF.GenerationSoftware,Altium Limited,Altium Designer,25.8.1 (18)*%
G04 Layer_Color=128*
%FSLAX45Y45*%
%MOMM*%
%TF.SameCoordinates,E65FC597-5470-48E6-A3C5-A0BB56F9C58A*%
%TF.FilePolarity,Positive*%
%TF.FileFunction,Drillmap*%
%TF.Part,Single*%
G01*
G75*
%TA.AperFunction,NonConductor*%
%ADD65C,0.12700*%
D65*
X2450000Y2101000D02*
X2550000D01*
X2500000Y2051000D02*
Y2151000D01*
X497500Y2162000D02*
X637500D01*
X567500Y2092000D02*
Y2232000D01*
X77500Y2162000D02*
X257500D01*
X167500Y2072000D02*
Y2252000D01*
X497500Y1298000D02*
X637500D01*
X567500Y1228000D02*
Y1368000D01*
X77500Y1298000D02*
X257500D01*
X167500Y1208000D02*
Y1388000D01*
X2450000Y1847000D02*
X2550000D01*
X2500000Y1797000D02*
Y1897000D01*
X4267500Y185000D02*
X4357500D01*
X4312500Y140000D02*
Y230000D01*
X3842500Y185000D02*
X3932500D01*
X3887500Y140000D02*
Y230000D01*
X2450000Y1593000D02*
X2550000D01*
X2500000Y1543000D02*
Y1643000D01*
X1317500Y182500D02*
X1407500D01*
X1362500Y137500D02*
Y227500D01*
X892500Y182500D02*
X982500D01*
X937500Y137500D02*
Y227500D01*
X2617500Y182500D02*
X2707500D01*
X2662500Y137500D02*
Y227500D01*
X2192500Y182500D02*
X2282500D01*
X2237500Y137500D02*
Y227500D01*
X765000Y3225000D02*
X855000D01*
X810000Y3180000D02*
Y3270000D01*
X1445000Y3225000D02*
X1535000D01*
X1490000Y3180000D02*
Y3270000D01*
X60000Y175000D02*
X290000D01*
X175000Y60000D02*
Y290000D01*
X2450000Y1339000D02*
X2550000D01*
X2500000Y1289000D02*
Y1389000D01*
X5060000Y175000D02*
X5290000D01*
X5175000Y60000D02*
Y290000D01*
X60000Y3275000D02*
X290000D01*
X175000Y3160000D02*
Y3390000D01*
X5060000Y3275000D02*
X5290000D01*
X5175000Y3160000D02*
Y3390000D01*
X860000Y1075000D02*
X890000D01*
X875000Y1060000D02*
Y1090000D01*
X730000Y1625000D02*
X760000D01*
X745000Y1610000D02*
Y1640000D01*
X1035000Y2400000D02*
X1065000D01*
X1050000Y2385000D02*
Y2415000D01*
X1392247Y2676300D02*
X1422247D01*
X1407247Y2661300D02*
Y2691300D01*
X643592Y2429736D02*
X673591D01*
X658592Y2414736D02*
Y2444736D01*
X3285000Y2800000D02*
X3315000D01*
X3300000Y2785000D02*
Y2815000D01*
X3307844Y2939857D02*
X3337844D01*
X3322844Y2924857D02*
Y2954857D01*
X4785000Y175000D02*
X4815000D01*
X4800000Y160000D02*
Y190000D01*
X3135000Y1850000D02*
X3165000D01*
X3150000Y1835000D02*
Y1865000D01*
X2305000Y2240000D02*
X2335000D01*
X2320000Y2225000D02*
Y2255000D01*
X1189760Y2871000D02*
X1219760D01*
X1204760Y2856000D02*
Y2886000D01*
X4108079Y2256179D02*
X4138079D01*
X4123079Y2241179D02*
Y2271179D01*
X4335000Y2375000D02*
X4365000D01*
X4350000Y2360000D02*
Y2390000D01*
X4345000Y1930000D02*
X4375000D01*
X4360000Y1915000D02*
Y1945000D01*
X2174629Y414629D02*
X2204629D01*
X2189629Y399629D02*
Y429629D01*
X5035000Y525000D02*
X5065000D01*
X5050000Y510000D02*
Y540000D01*
X3749207Y2240710D02*
X3779207D01*
X3764207Y2225710D02*
Y2255710D01*
X3662095Y2402097D02*
X3692095D01*
X3677095Y2387097D02*
Y2417097D01*
X3460000Y2392700D02*
X3490000D01*
X3475000Y2377700D02*
Y2407700D01*
X1035000Y950000D02*
X1065000D01*
X1050000Y935000D02*
Y965000D01*
X4735000Y3240400D02*
X4765000D01*
X4750000Y3225400D02*
Y3255400D01*
X1160000Y2625000D02*
X1190000D01*
X1175000Y2610000D02*
Y2640000D01*
X3402871Y1987871D02*
X3432871D01*
X3417871Y1972871D02*
Y2002871D01*
X1435000Y1950000D02*
X1465000D01*
X1450000Y1935000D02*
Y1965000D01*
X1435000Y1800000D02*
X1465000D01*
X1450000Y1785000D02*
Y1815000D01*
X1735000Y2700000D02*
X1765000D01*
X1750000Y2685000D02*
Y2715000D01*
X2060000Y3250000D02*
X2090000D01*
X2075000Y3235000D02*
Y3265000D01*
X3905607Y457300D02*
X3935607D01*
X3920607Y442300D02*
Y472300D01*
X1435000Y775000D02*
X1465000D01*
X1450000Y760000D02*
Y790000D01*
X4194142Y1384745D02*
X4224142D01*
X4209142Y1369745D02*
Y1399745D01*
X4465000Y1440000D02*
X4495000D01*
X4480000Y1425000D02*
Y1455000D01*
X4119160Y1268260D02*
X4149160D01*
X4134160Y1253260D02*
Y1283260D01*
X4460000Y1100000D02*
X4490000D01*
X4475000Y1085000D02*
Y1115000D01*
X3535000Y1475000D02*
X3565000D01*
X3550000Y1460000D02*
Y1490000D01*
X3277869Y1463611D02*
X3307869D01*
X3292869Y1448611D02*
Y1478611D01*
X4290000Y3025000D02*
X4320000D01*
X4305000Y3010000D02*
Y3040000D01*
X4431841Y1650759D02*
X4461841D01*
X4446841Y1635759D02*
Y1665759D01*
X3510000Y2950000D02*
X3540000D01*
X3525000Y2935000D02*
Y2965000D01*
X1804440Y1250480D02*
X1834440D01*
X1819440Y1235480D02*
Y1265480D01*
X2260214Y1305639D02*
X2290214D01*
X2275214Y1290639D02*
Y1320639D01*
X1335000Y1425000D02*
X1365000D01*
X1350000Y1410000D02*
Y1440000D01*
X3913520Y2274100D02*
X3943520D01*
X3928520Y2259100D02*
Y2289100D01*
X4910000Y2925000D02*
X4940000D01*
X4925000Y2910000D02*
Y2940000D01*
X1035000Y2870000D02*
X1065000D01*
X1050000Y2855000D02*
Y2885000D01*
X360371Y2699629D02*
X390371D01*
X375371Y2684629D02*
Y2714629D01*
X245000Y2270000D02*
X275000D01*
X260000Y2255000D02*
Y2285000D01*
X1411593Y2288460D02*
X1441592D01*
X1426593Y2273460D02*
Y2303460D01*
X2535000Y2900000D02*
X2565000D01*
X2550000Y2885000D02*
Y2915000D01*
X3983760Y1298420D02*
X4013760D01*
X3998760Y1283420D02*
Y1313420D01*
X1435000Y1475000D02*
X1465000D01*
X1450000Y1460000D02*
Y1490000D01*
X1692680Y3226600D02*
X1722680D01*
X1707680Y3211600D02*
Y3241600D01*
X2060000Y2425000D02*
X2090000D01*
X2075000Y2410000D02*
Y2440000D01*
X2785000Y2875000D02*
X2815000D01*
X2800000Y2860000D02*
Y2890000D01*
X1935000Y2250000D02*
X1965000D01*
X1950000Y2235000D02*
Y2265000D01*
X737640Y320840D02*
X767640D01*
X752640Y305840D02*
Y335840D01*
X436558Y1766100D02*
X466558D01*
X451558Y1751100D02*
Y1781100D01*
X735000Y600000D02*
X765000D01*
X750000Y585000D02*
Y615000D01*
X4827040Y3320580D02*
X4857040D01*
X4842040Y3305580D02*
Y3335580D01*
%TF.MD5,1b245eb7e05245fc39b5b2d72880a8ce*%
M02*
