%TF.GenerationSoftware,Altium Limited,Altium Designer,25.8.1 (18)*%
G04 Layer_Color=32768*
%FSLAX45Y45*%
%MOMM*%
%TF.SameCoordinates,E65FC597-5470-48E6-A3C5-A0BB56F9C58A*%
%TF.FilePolarity,Positive*%
%TF.FileFunction,Other,Bottom_3D_Body*%
%TF.Part,Single*%
G01*
G75*
%TA.AperFunction,NonConductor*%
%ADD62C,0.20000*%
%ADD65C,0.12700*%
%ADD67C,0.30000*%
%ADD91C,0.10000*%
%ADD92R,2.00000X1.20000*%
D62*
X819000Y175000D02*
G03*
X819000Y175000I-10000J0D01*
G01*
Y725000D02*
G03*
X819000Y725000I-10000J0D01*
G01*
Y450000D02*
G03*
X819000Y450000I-10000J0D01*
G01*
X350000Y905000D02*
Y995000D01*
X180000Y905000D02*
X350000D01*
X180000D02*
Y995000D01*
X350000D01*
Y480000D02*
Y570000D01*
X180000Y480000D02*
X350000D01*
X180000D02*
Y570000D01*
X350000D01*
X3340000Y145000D02*
Y305000D01*
X3260000D02*
X3340000D01*
X3260000Y145000D02*
Y305000D01*
Y145000D02*
X3340000D01*
X3210000Y2045000D02*
Y2205000D01*
Y2045000D02*
X3290000D01*
Y2205000D01*
X3210000D02*
X3290000D01*
X4845000Y3060000D02*
Y3140000D01*
X5005000D01*
Y3060000D02*
Y3140000D01*
X4845000Y3060000D02*
X5005000D01*
X1135000Y720000D02*
Y880000D01*
Y720000D02*
X1215000D01*
Y880000D01*
X1135000D02*
X1215000D01*
X1044900Y1239907D02*
X1124900D01*
X1044900D02*
Y1399908D01*
X1124900D01*
Y1239907D02*
Y1399908D01*
X1635000Y195000D02*
X1715000D01*
X1635000D02*
Y355000D01*
X1715000D01*
Y195000D02*
Y355000D01*
X4662500Y177422D02*
Y377422D01*
X4537500D02*
X4662500D01*
X4537500Y177422D02*
Y377422D01*
Y177422D02*
X4662500D01*
X2690000Y725000D02*
Y825000D01*
X2510000Y725000D02*
X2690000D01*
X2510000D02*
Y825000D01*
X2690000D01*
X4845000Y2760000D02*
X5005000D01*
Y2840000D01*
X4845000D02*
X5005000D01*
X4845000Y2760000D02*
Y2840000D01*
X4395000Y3155000D02*
X4705000D01*
Y2845000D02*
Y3155000D01*
X4395000Y2845000D02*
X4705000D01*
X4395000D02*
Y3155000D01*
X242500Y2540000D02*
X457500D01*
Y2410000D02*
Y2540000D01*
X242500Y2410000D02*
X457500D01*
X242500D02*
Y2540000D01*
X700000Y3050000D02*
X1600000D01*
Y3600000D01*
X700000D02*
X1600000D01*
X700000Y3050000D02*
Y3600000D01*
X3275000Y3080000D02*
Y3220000D01*
X2975000Y3080000D02*
X3275000D01*
X2975000D02*
Y3220000D01*
X3275000D01*
X1855000Y2415000D02*
Y2585000D01*
Y2415000D02*
X1945000D01*
Y2585000D01*
X1855000D02*
X1945000D01*
X2105000Y715000D02*
X2195000D01*
X2105000D02*
Y885000D01*
X2195000D01*
Y715000D02*
Y885000D01*
X2810000Y2205000D02*
X2890000D01*
Y2045000D02*
Y2205000D01*
X2810000Y2045000D02*
X2890000D01*
X2810000D02*
Y2205000D01*
X1137500Y1677422D02*
Y1877422D01*
Y1677422D02*
X1262500D01*
Y1877422D01*
X1137500D02*
X1262500D01*
X3292500Y672500D02*
Y827500D01*
X3557500D01*
Y672500D02*
Y827500D01*
X3292500Y672500D02*
X3557500D01*
X617500Y1273000D02*
Y2187000D01*
X-52500D02*
X617500D01*
X-52500Y1273000D02*
Y2187000D01*
Y1273000D02*
X617500D01*
X1835000Y3112671D02*
Y3272671D01*
Y3112671D02*
X1915000D01*
Y3272671D01*
X1835000D02*
X1915000D01*
X242500Y2835000D02*
Y2965000D01*
Y2835000D02*
X457500D01*
Y2965000D01*
X242500D02*
X457500D01*
X1635000Y1595000D02*
X2145000D01*
Y2105000D01*
X1635000D02*
X2145000D01*
X1635000Y1595000D02*
Y2105000D01*
X1235000Y2220000D02*
Y2380000D01*
Y2220000D02*
X1315000D01*
Y2380000D01*
X1235000D02*
X1315000D01*
X770000Y2485000D02*
X930000D01*
Y2565000D01*
X770000D02*
X930000D01*
X770000Y2485000D02*
Y2565000D01*
Y2760000D02*
X930000D01*
Y2840000D01*
X770000D02*
X930000D01*
X770000Y2760000D02*
Y2840000D01*
X2265000Y2420000D02*
Y2580000D01*
X2185000D02*
X2265000D01*
X2185000Y2420000D02*
Y2580000D01*
Y2420000D02*
X2265000D01*
X2816500Y1682000D02*
X2956500D01*
X2816500Y1378000D02*
Y1682000D01*
Y1378000D02*
X2956500D01*
Y1682000D01*
X2510000Y1150000D02*
X2690000D01*
X2510000Y1050000D02*
Y1150000D01*
Y1050000D02*
X2690000D01*
Y1150000D01*
X2865000Y2570000D02*
Y2730000D01*
X2785000D02*
X2865000D01*
X2785000Y2570000D02*
Y2730000D01*
Y2570000D02*
X2865000D01*
X3380000Y3221000D02*
X3680000D01*
X3380000Y3081000D02*
Y3221000D01*
Y3081000D02*
X3680000D01*
Y3221000D01*
D65*
X3825000Y3345000D02*
X4225000D01*
X3825000Y3055000D02*
Y3345000D01*
Y3055000D02*
X4225000D01*
Y3345000D01*
X2400000Y3055000D02*
Y3345000D01*
X2800000D01*
Y3055000D02*
Y3345000D01*
X2400000Y3055000D02*
X2800000D01*
X3895000Y965000D02*
X4495000D01*
X3895000D02*
Y1565000D01*
X4495000D01*
Y965000D02*
Y1565000D01*
X3885000Y1875000D02*
X4485000D01*
X3885000D02*
Y2475000D01*
X4485000D01*
Y1875000D02*
Y2475000D01*
X719000Y135000D02*
Y215000D01*
X599000Y135000D02*
X719000D01*
X599000D02*
Y215000D01*
X719000D01*
X599000Y765000D02*
X719000D01*
X599000Y685000D02*
Y765000D01*
Y685000D02*
X719000D01*
Y765000D01*
X599000Y490000D02*
X719000D01*
X599000Y410000D02*
Y490000D01*
Y410000D02*
X719000D01*
Y490000D01*
D67*
X4650000Y1185000D02*
G03*
X4650000Y1185000I-10000J0D01*
G01*
X4640000Y2095000D02*
G03*
X4640000Y2095000I-10000J0D01*
G01*
D91*
X4952500Y235000D02*
Y340000D01*
X4897500Y235000D02*
Y340000D01*
Y235000D02*
X4952500D01*
X4897500Y340000D02*
X4952500D01*
X3772100Y1268158D02*
Y1618158D01*
X3122100Y1268158D02*
X3772100D01*
X3122100Y1618158D02*
X3772100D01*
X3122100Y1268158D02*
Y1618158D01*
X3522500Y2177500D02*
X3577500D01*
X3522500Y2072500D02*
X3577500D01*
X3522500D02*
Y2177500D01*
X3577500Y2072500D02*
Y2177500D01*
X3965000Y2730000D02*
X4135000D01*
X3965000Y2820000D02*
X4135000D01*
X3965000Y2730000D02*
Y2820000D01*
X4135000Y2730000D02*
Y2820000D01*
X3605000Y335000D02*
X3695000D01*
X3605000Y165000D02*
X3695000D01*
X3605000D02*
Y335000D01*
X3695000Y165000D02*
Y335000D01*
X3875000Y-20000D02*
X4325000D01*
X3875000Y335000D02*
X4325000D01*
X3875000Y-20000D02*
Y335000D01*
X4325000Y-20000D02*
Y335000D01*
X1955000Y1165000D02*
X2045000D01*
X1955000Y1335000D02*
X2045000D01*
Y1165000D02*
Y1335000D01*
X1955000Y1165000D02*
Y1335000D01*
X1580000Y1165000D02*
X1670000D01*
X1580000Y1335000D02*
X1670000D01*
Y1165000D02*
Y1335000D01*
X1580000Y1165000D02*
Y1335000D01*
X2045000Y190000D02*
Y360000D01*
X1955000Y190000D02*
Y360000D01*
Y190000D02*
X2045000D01*
X1955000Y360000D02*
X2045000D01*
X1695000Y715000D02*
Y885000D01*
X1605000Y715000D02*
Y885000D01*
Y715000D02*
X1695000D01*
X1605000Y885000D02*
X1695000D01*
X970000Y2090000D02*
Y2260000D01*
X880000Y2090000D02*
Y2260000D01*
Y2090000D02*
X970000D01*
X880000Y2260000D02*
X970000D01*
X925000Y-22500D02*
X1375000D01*
X925000Y332500D02*
X1375000D01*
X925000Y-22500D02*
Y332500D01*
X1375000Y-22500D02*
Y332500D01*
X3480000Y2735000D02*
X3570000D01*
X3480000Y2565000D02*
X3570000D01*
X3480000D02*
Y2735000D01*
X3570000Y2565000D02*
Y2735000D01*
X2225000Y-22500D02*
X2675000D01*
X2225000Y332500D02*
X2675000D01*
X2225000Y-22500D02*
Y332500D01*
X2675000Y-22500D02*
Y332500D01*
X1505000Y2575000D02*
X1595000D01*
X1505000Y2405000D02*
X1595000D01*
X1505000D02*
Y2575000D01*
X1595000Y2405000D02*
Y2575000D01*
X922500Y1723500D02*
X977500D01*
X922500Y1828500D02*
X977500D01*
Y1723500D02*
Y1828500D01*
X922500Y1723500D02*
Y1828500D01*
X528500Y3147500D02*
Y3202500D01*
X423500Y3147500D02*
Y3202500D01*
X528500D01*
X423500Y3147500D02*
X528500D01*
X2172500Y3146500D02*
Y3251500D01*
X2227500Y3146500D02*
Y3251500D01*
X2172500D02*
X2227500D01*
X2172500Y3146500D02*
X2227500D01*
X623500Y1002500D02*
X728500D01*
X623500Y947500D02*
X728500D01*
Y1002500D01*
X623500Y947500D02*
Y1002500D01*
X3252500Y2597500D02*
Y2702500D01*
X3197500Y2597500D02*
Y2702500D01*
Y2597500D02*
X3252500D01*
X3197500Y2702500D02*
X3252500D01*
D92*
X4100000Y95000D02*
D03*
X1150001Y92500D02*
D03*
X2450002Y92498D02*
D03*
%TF.MD5,b763f95fa9d98ffe3f2eb0d52a10360a*%
M02*
