%TF.GenerationSoftware,Altium Limited,Altium Designer,25.8.1 (18)*%
G04 Layer_Color=0*
%FSLAX45Y45*%
%MOMM*%
%TF.SameCoordinates,E65FC597-5470-48E6-A3C5-A0BB56F9C58A*%
%TF.FilePolarity,Positive*%
%TF.FileFunction,Other,Top_Component_Center*%
%TF.Part,Single*%
G01*
G75*
%TA.AperFunction,NonConductor*%
%ADD91C,0.10000*%
D91*
X3775000Y525000D02*
X3875000D01*
X3825000Y475000D02*
Y575000D01*
X4750000Y3050000D02*
Y3150000D01*
X4700000Y3100000D02*
X4800000D01*
X4475000Y450000D02*
Y550000D01*
X4425000Y500000D02*
X4525000D01*
X4350000Y2950000D02*
X4450000D01*
X4400000Y2900000D02*
Y3000000D01*
X4125000Y525000D02*
X4225000D01*
X4175000Y475000D02*
Y575000D01*
X3646500Y2937810D02*
X3746500D01*
X3696500Y2887810D02*
Y2987810D01*
X3425000Y2865411D02*
Y2965411D01*
X3375000Y2915411D02*
X3475000D01*
X4676641Y2877900D02*
X4776640D01*
X4726641Y2827900D02*
Y2927900D01*
X4099000Y1675000D02*
Y1775000D01*
X4049000Y1725000D02*
X4149000D01*
X3075000Y3025000D02*
Y3125000D01*
X3025000Y3075000D02*
X3125000D01*
X4180583Y2898107D02*
Y2998107D01*
X4130583Y2948107D02*
X4230583D01*
X3955583Y2898107D02*
Y2998107D01*
X3905583Y2948107D02*
X4005583D01*
%TF.MD5,1e0ae41adf6cb85117f8576b1952eaa2*%
M02*
