%TF.GenerationSoftware,Altium Limited,Altium Designer,25.8.1 (18)*%
G04 Layer_Color=255*
%FSLAX45Y45*%
%MOMM*%
%TF.SameCoordinates,E65FC597-5470-48E6-A3C5-A0BB56F9C58A*%
%TF.FilePolarity,Positive*%
%TF.FileFunction,Pads,Bot*%
%TF.Part,Single*%
G01*
G75*
%TA.AperFunction,SMDPad,CuDef*%
%ADD11R,0.80000X0.90000*%
%ADD13R,1.35620X1.05464*%
%ADD18R,0.81213X0.65872*%
%ADD21R,0.91213X0.85872*%
%TA.AperFunction,ComponentPad*%
%ADD22R,1.50800X1.50800*%
G04:AMPARAMS|DCode=23|XSize=1mm|YSize=1.8mm|CornerRadius=0.5mm|HoleSize=0mm|Usage=FLASHONLY|Rotation=90.000|XOffset=0mm|YOffset=0mm|HoleType=Round|Shape=RoundedRectangle|*
%AMROUNDEDRECTD23*
21,1,1.00000,0.80000,0,0,90.0*
21,1,0.00000,1.80000,0,0,90.0*
1,1,1.00000,0.40000,0.00000*
1,1,1.00000,0.40000,0.00000*
1,1,1.00000,-0.40000,0.00000*
1,1,1.00000,-0.40000,0.00000*
%
%ADD23ROUNDEDRECTD23*%
G04:AMPARAMS|DCode=24|XSize=1mm|YSize=2.2mm|CornerRadius=0.5mm|HoleSize=0mm|Usage=FLASHONLY|Rotation=90.000|XOffset=0mm|YOffset=0mm|HoleType=Round|Shape=RoundedRectangle|*
%AMROUNDEDRECTD24*
21,1,1.00000,1.20000,0,0,90.0*
21,1,0.00000,2.20000,0,0,90.0*
1,1,1.00000,0.60000,0.00000*
1,1,1.00000,0.60000,0.00000*
1,1,1.00000,-0.60000,0.00000*
1,1,1.00000,-0.60000,0.00000*
%
%ADD24ROUNDEDRECTD24*%
%ADD25C,1.50800*%
%ADD26C,0.90000*%
%TA.AperFunction,ViaPad*%
%ADD27C,1.52400*%
%TA.AperFunction,SMDPad,CuDef*%
%ADD30R,0.90000X0.80000*%
%ADD31R,0.72000X0.76000*%
%ADD32R,0.75814X0.81213*%
%ADD33R,1.35000X1.80000*%
G04:AMPARAMS|DCode=34|XSize=1.45mm|YSize=0.3mm|CornerRadius=0.0495mm|HoleSize=0mm|Usage=FLASHONLY|Rotation=270.000|XOffset=0mm|YOffset=0mm|HoleType=Round|Shape=RoundedRectangle|*
%AMROUNDEDRECTD34*
21,1,1.45000,0.20100,0,0,270.0*
21,1,1.35100,0.30000,0,0,270.0*
1,1,0.09900,-0.10050,-0.67550*
1,1,0.09900,-0.10050,0.67550*
1,1,0.09900,0.10050,0.67550*
1,1,0.09900,0.10050,-0.67550*
%
%ADD34ROUNDEDRECTD34*%
%ADD35R,2.50000X0.70000*%
%TA.AperFunction,ConnectorPad*%
%ADD36R,0.75000X1.80000*%
%TA.AperFunction,SMDPad,CuDef*%
%ADD37R,1.50000X2.00000*%
%ADD38R,1.05000X0.95000*%
%ADD39C,3.01500*%
%ADD40R,0.65872X0.81213*%
%ADD41R,0.76000X0.72000*%
G04:AMPARAMS|DCode=42|XSize=0.91029mm|YSize=0.43583mm|CornerRadius=0.21791mm|HoleSize=0mm|Usage=FLASHONLY|Rotation=270.000|XOffset=0mm|YOffset=0mm|HoleType=Round|Shape=RoundedRectangle|*
%AMROUNDEDRECTD42*
21,1,0.91029,0.00000,0,0,270.0*
21,1,0.47446,0.43583,0,0,270.0*
1,1,0.43583,0.00000,-0.23723*
1,1,0.43583,0.00000,0.23723*
1,1,0.43583,0.00000,0.23723*
1,1,0.43583,0.00000,-0.23723*
%
%ADD42ROUNDEDRECTD42*%
%TA.AperFunction,BGAPad,CuDef*%
%ADD43C,0.27000*%
%TA.AperFunction,ConnectorPad*%
%ADD44R,1.15000X0.60000*%
%TA.AperFunction,SMDPad,CuDef*%
%ADD45R,0.75000X0.90000*%
%ADD46R,0.48000X0.40000*%
%TA.AperFunction,ConnectorPad*%
%ADD47R,1.00000X1.60000*%
%TA.AperFunction,SMDPad,CuDef*%
%ADD48R,3.80000X2.00000*%
%ADD49R,0.80000X1.00000*%
%TA.AperFunction,ConnectorPad*%
%ADD50R,1.30000X0.90000*%
%ADD51R,0.60000X1.80000*%
%TA.AperFunction,SMDPad,CuDef*%
%ADD52R,1.00000X0.80000*%
%ADD53R,1.55748X0.74248*%
%ADD54R,0.97200X0.80200*%
%ADD55R,0.90000X0.70000*%
%ADD56R,0.43583X0.91029*%
G04:AMPARAMS|DCode=57|XSize=1.55748mm|YSize=0.74248mm|CornerRadius=0.37124mm|HoleSize=0mm|Usage=FLASHONLY|Rotation=0.000|XOffset=0mm|YOffset=0mm|HoleType=Round|Shape=RoundedRectangle|*
%AMROUNDEDRECTD57*
21,1,1.55748,0.00000,0,0,0.0*
21,1,0.81501,0.74248,0,0,0.0*
1,1,0.74247,0.40750,0.00000*
1,1,0.74247,-0.40750,0.00000*
1,1,0.74247,-0.40750,0.00000*
1,1,0.74247,0.40750,0.00000*
%
%ADD57ROUNDEDRECTD57*%
%ADD58R,0.80000X0.60000*%
%ADD59R,0.60000X0.80000*%
%ADD60R,1.90000X1.10000*%
%TA.AperFunction,ConnectorPad*%
%ADD61R,1.15000X0.30000*%
D11*
X1900000Y2585000D02*
D03*
X2150000Y715000D02*
D03*
Y885000D02*
D03*
X1900000Y2415000D02*
D03*
D13*
X4600000Y350000D02*
D03*
X1200000Y1704844D02*
D03*
X4600000Y204844D02*
D03*
X1200000Y1850000D02*
D03*
D18*
X1084900Y1387578D02*
D03*
X3300000Y292671D02*
D03*
X1875000Y3125000D02*
D03*
X1275000Y2232330D02*
D03*
X1675000Y342671D02*
D03*
X1175000Y732329D02*
D03*
X3300000Y157329D02*
D03*
X1175000Y867671D02*
D03*
X1084900Y1252237D02*
D03*
X1675000Y207329D02*
D03*
X1875000Y3260341D02*
D03*
X1275000Y2367671D02*
D03*
X2225000Y2432329D02*
D03*
Y2567671D02*
D03*
X2825000Y2582329D02*
D03*
Y2717671D02*
D03*
D21*
X3250000Y2202671D02*
D03*
Y2047329D02*
D03*
X2850000Y2202671D02*
D03*
Y2047329D02*
D03*
D22*
X2500000Y2101000D02*
D03*
D23*
X567500Y2162000D02*
D03*
Y1298000D02*
D03*
D24*
X167500Y2162000D02*
D03*
Y1298000D02*
D03*
D25*
X2500000Y1847000D02*
D03*
Y1593000D02*
D03*
Y1339000D02*
D03*
D26*
X810000Y3225000D02*
D03*
X1490000D02*
D03*
D27*
X175000Y175000D02*
D03*
X5175000D02*
D03*
X175000Y3275000D02*
D03*
X5175000D02*
D03*
D30*
X180000Y950000D02*
D03*
X350000D02*
D03*
X180000Y525000D02*
D03*
X350000D02*
D03*
D31*
X4925000Y238500D02*
D03*
Y336500D02*
D03*
X3225000Y2601000D02*
D03*
X3550000Y2174000D02*
D03*
X2200000Y3150000D02*
D03*
X950000Y1727000D02*
D03*
Y1825000D02*
D03*
X3550000Y2076000D02*
D03*
X3225000Y2699000D02*
D03*
X2200000Y3248000D02*
D03*
D32*
X4987699Y3100000D02*
D03*
Y2800000D02*
D03*
X4862301D02*
D03*
Y3100000D02*
D03*
D33*
X4232500Y3200000D02*
D03*
X2392500D02*
D03*
X3817500D02*
D03*
X2807500D02*
D03*
D34*
X4550000Y2780000D02*
D03*
X4650000Y3220000D02*
D03*
X4450000Y2780000D02*
D03*
X4500000Y3220000D02*
D03*
X4650000Y2780000D02*
D03*
X4600000Y3220000D02*
D03*
X4450000D02*
D03*
X4550000D02*
D03*
X4500000Y2780000D02*
D03*
X4600000D02*
D03*
D35*
X4450000Y1340000D02*
D03*
X4440000Y2100000D02*
D03*
Y2250000D02*
D03*
X4450000Y1190000D02*
D03*
D36*
X4222500Y275000D02*
D03*
X3977500D02*
D03*
X2572500Y272500D02*
D03*
X2327500D02*
D03*
X1272500D02*
D03*
X1027500D02*
D03*
D37*
X3677100Y1128158D02*
D03*
X3447100D02*
D03*
X3217100D02*
D03*
D38*
X3650000Y177500D02*
D03*
X1650000Y727500D02*
D03*
X2000000Y202500D02*
D03*
X3650000Y322500D02*
D03*
X2000000Y347500D02*
D03*
X1650000Y872500D02*
D03*
D39*
X1890000Y1850000D02*
D03*
D40*
X782329Y2800000D02*
D03*
Y2525000D02*
D03*
X917671D02*
D03*
Y2800000D02*
D03*
D41*
X525000Y3175000D02*
D03*
X627000Y975000D02*
D03*
X725000D02*
D03*
X427000Y3175000D02*
D03*
D42*
X415000Y2980092D02*
D03*
Y2555092D02*
D03*
X350000Y2394908D02*
D03*
Y2819908D02*
D03*
D43*
X1650000Y1800000D02*
D03*
Y2000000D02*
D03*
Y1950000D02*
D03*
X1617500Y1850000D02*
D03*
X1650000Y1900000D02*
D03*
Y1700000D02*
D03*
Y1750000D02*
D03*
X1740000Y2090000D02*
D03*
X1790000D02*
D03*
X1840000D02*
D03*
X1890000Y2122500D02*
D03*
X1940000Y2090000D02*
D03*
X1990000D02*
D03*
X2040000D02*
D03*
X2130000Y2000000D02*
D03*
Y1950000D02*
D03*
Y1900000D02*
D03*
X2157500Y1850000D02*
D03*
X2130000Y1800000D02*
D03*
Y1750000D02*
D03*
Y1700000D02*
D03*
X2040000Y1610000D02*
D03*
X1990000D02*
D03*
X1940000D02*
D03*
X1890000Y1582500D02*
D03*
X1840000Y1610000D02*
D03*
X1790000D02*
D03*
X1740000D02*
D03*
D44*
X625000Y2050000D02*
D03*
Y1410000D02*
D03*
Y1970000D02*
D03*
Y1490000D02*
D03*
D45*
X2522500Y1100000D02*
D03*
Y775000D02*
D03*
X2677500D02*
D03*
Y1100000D02*
D03*
D46*
X593000Y725000D02*
D03*
Y450000D02*
D03*
Y175000D02*
D03*
X725000Y725000D02*
D03*
Y175000D02*
D03*
Y450000D02*
D03*
D47*
X1400000Y3105000D02*
D03*
Y3345000D02*
D03*
X900000D02*
D03*
X1150000D02*
D03*
X900000Y3105000D02*
D03*
X1150000D02*
D03*
D48*
X3447100Y1758158D02*
D03*
D49*
X3975000Y2775000D02*
D03*
X4125000D02*
D03*
D50*
X3915000Y80000D02*
D03*
X4285000D02*
D03*
X965000Y77500D02*
D03*
X1335000D02*
D03*
X2265000D02*
D03*
X2635000D02*
D03*
D51*
X4100000Y275000D02*
D03*
X1150000Y272500D02*
D03*
X2450000D02*
D03*
D52*
X2000000Y1175000D02*
D03*
Y1325000D02*
D03*
X1625000Y1175000D02*
D03*
Y1325000D02*
D03*
X925000Y2100000D02*
D03*
Y2250000D02*
D03*
D53*
X3254963Y750000D02*
D03*
D54*
X2975000Y1435000D02*
D03*
Y1625000D02*
D03*
X2798000Y1530000D02*
D03*
D55*
X3525000Y2580000D02*
D03*
Y2720000D02*
D03*
D56*
X285000Y2555092D02*
D03*
Y2980092D02*
D03*
D57*
X3595037Y750000D02*
D03*
D58*
X1550000Y2555000D02*
D03*
Y2425000D02*
D03*
D59*
X3530000Y3252000D02*
D03*
X3030000Y3049000D02*
D03*
X3220000D02*
D03*
X3125000Y3251000D02*
D03*
X3625000Y3050000D02*
D03*
X3435000D02*
D03*
D60*
X4090000Y995000D02*
D03*
Y1535000D02*
D03*
X4080000Y1905000D02*
D03*
Y2445000D02*
D03*
D61*
X625000Y1905000D02*
D03*
Y1855000D02*
D03*
Y1805000D02*
D03*
Y1755000D02*
D03*
Y1705000D02*
D03*
Y1655000D02*
D03*
Y1605000D02*
D03*
Y1555000D02*
D03*
%TF.MD5,f2642dd24df3ecd65814f12e32b50a8f*%
M02*
