%TF.GenerationSoftware,Altium Limited,Altium Designer,25.8.1 (18)*%
G04 Layer_Color=16711935*
%FSLAX45Y45*%
%MOMM*%
%TF.SameCoordinates,E65FC597-5470-48E6-A3C5-A0BB56F9C58A*%
%TF.FilePolarity,Positive*%
%TF.FileFunction,Other,Top_Assembly*%
%TF.Part,Single*%
G01*
G75*
%TA.AperFunction,NonConductor*%
%ADD62C,0.20000*%
G36*
X4538978Y470323D02*
X4538886Y469583D01*
Y468751D01*
X4538793Y466809D01*
X4538516Y464775D01*
X4538238Y462556D01*
X4537776Y460522D01*
X4537499Y459505D01*
X4537221Y458673D01*
Y458581D01*
X4537129Y458488D01*
X4536851Y457934D01*
X4536482Y457101D01*
X4535834Y456084D01*
X4535002Y454975D01*
X4533893Y453773D01*
X4532599Y452664D01*
X4531119Y451554D01*
X4531027D01*
X4530934Y451462D01*
X4530380Y451092D01*
X4529455Y450722D01*
X4528253Y450167D01*
X4526866Y449705D01*
X4525202Y449243D01*
X4523445Y448965D01*
X4521504Y448873D01*
X4521411D01*
X4521226D01*
X4520857D01*
X4520394Y448965D01*
X4519747D01*
X4519100Y449058D01*
X4517528Y449428D01*
X4515679Y449982D01*
X4513737Y450722D01*
X4511796Y451831D01*
X4510871Y452571D01*
X4509947Y453311D01*
X4509854Y453403D01*
X4509762Y453496D01*
X4509485Y453773D01*
X4509207Y454143D01*
X4508837Y454605D01*
X4508467Y455160D01*
X4508005Y455900D01*
X4507450Y456639D01*
X4506988Y457564D01*
X4506526Y458581D01*
X4505971Y459690D01*
X4505509Y460892D01*
X4505139Y462279D01*
X4504677Y463666D01*
X4504399Y465238D01*
X4504122Y466902D01*
X4504030Y466717D01*
X4503845Y466347D01*
X4503475Y465792D01*
X4503105Y465053D01*
X4502088Y463388D01*
X4501441Y462556D01*
X4500886Y461817D01*
X4500701Y461632D01*
X4500239Y461170D01*
X4499499Y460430D01*
X4498575Y459505D01*
X4497280Y458488D01*
X4495893Y457286D01*
X4494229Y456084D01*
X4492380Y454790D01*
X4474998Y443788D01*
Y454328D01*
X4488312Y462741D01*
X4488405D01*
X4488589Y462926D01*
X4488867Y463111D01*
X4489237Y463388D01*
X4490254Y464036D01*
X4491548Y464868D01*
X4492935Y465885D01*
X4494414Y466902D01*
X4495801Y467919D01*
X4497095Y468843D01*
X4497188Y468936D01*
X4497558Y469213D01*
X4498112Y469675D01*
X4498760Y470323D01*
X4500146Y471709D01*
X4500794Y472449D01*
X4501348Y473189D01*
X4501441Y473281D01*
X4501533Y473466D01*
X4501718Y473836D01*
X4501996Y474391D01*
X4502273Y474945D01*
X4502550Y475593D01*
X4503013Y477072D01*
Y477164D01*
X4503105Y477349D01*
Y477719D01*
X4503197Y478181D01*
X4503290Y478829D01*
Y479568D01*
X4503382Y480585D01*
Y491495D01*
X4474998D01*
Y500001D01*
X4538978D01*
Y470323D01*
D02*
G37*
G36*
X4538146Y396820D02*
X4531951D01*
X4531859Y396913D01*
X4531674Y397098D01*
X4531304Y397467D01*
X4530749Y397837D01*
X4530102Y398392D01*
X4529363Y399132D01*
X4528438Y399871D01*
X4527329Y400703D01*
X4526219Y401535D01*
X4524925Y402552D01*
X4523445Y403569D01*
X4521966Y404586D01*
X4520302Y405696D01*
X4518545Y406805D01*
X4516604Y407915D01*
X4514662Y409024D01*
X4514570Y409117D01*
X4514200Y409302D01*
X4513645Y409579D01*
X4512813Y410041D01*
X4511796Y410504D01*
X4510686Y411058D01*
X4509392Y411706D01*
X4507913Y412353D01*
X4506249Y413092D01*
X4504584Y413924D01*
X4502735Y414664D01*
X4500794Y415404D01*
X4496818Y416883D01*
X4492565Y418270D01*
X4492473D01*
X4492195Y418362D01*
X4491733Y418455D01*
X4491178Y418640D01*
X4490439Y418825D01*
X4489514Y419010D01*
X4488497Y419287D01*
X4487388Y419472D01*
X4486093Y419749D01*
X4484706Y420027D01*
X4481748Y420489D01*
X4478512Y420951D01*
X4474998Y421229D01*
Y429272D01*
X4475091D01*
X4475368D01*
X4475738D01*
X4476293Y429180D01*
X4477032D01*
X4477957Y429087D01*
X4478974Y428995D01*
X4480083Y428902D01*
X4481378Y428717D01*
X4482672Y428533D01*
X4484244Y428255D01*
X4485816Y427978D01*
X4487480Y427700D01*
X4489329Y427331D01*
X4493120Y426406D01*
X4493212D01*
X4493582Y426314D01*
X4494137Y426129D01*
X4494969Y425851D01*
X4495893Y425574D01*
X4497003Y425204D01*
X4498297Y424834D01*
X4499684Y424280D01*
X4501256Y423725D01*
X4502828Y423170D01*
X4506341Y421783D01*
X4510039Y420119D01*
X4513737Y418270D01*
X4513830Y418177D01*
X4514200Y417993D01*
X4514662Y417715D01*
X4515402Y417345D01*
X4516234Y416883D01*
X4517251Y416236D01*
X4518360Y415589D01*
X4519562Y414849D01*
X4522243Y413092D01*
X4525017Y411243D01*
X4527883Y409117D01*
X4530564Y406898D01*
Y438240D01*
X4538146D01*
Y396820D01*
D02*
G37*
G36*
X5322841Y648148D02*
X5310174D01*
X5295011Y693544D01*
Y693637D01*
X5294919Y693822D01*
X5294826Y694099D01*
X5294641Y694561D01*
X5294272Y695671D01*
X5293809Y697058D01*
X5293347Y698629D01*
X5292792Y700201D01*
X5292330Y701680D01*
X5291960Y702975D01*
X5291868Y702790D01*
X5291775Y702328D01*
X5291498Y701495D01*
X5291128Y700386D01*
X5290666Y698907D01*
X5290019Y697150D01*
X5289371Y695116D01*
X5288539Y692712D01*
X5273192Y648148D01*
X5261820D01*
Y712128D01*
X5269956D01*
Y658596D01*
X5288632Y712128D01*
X5296213D01*
X5314704Y657671D01*
Y712128D01*
X5322841D01*
Y648148D01*
D02*
G37*
G36*
X5248044D02*
X5223450D01*
X5221786Y648241D01*
X5219937Y648333D01*
X5218088Y648518D01*
X5216239Y648796D01*
X5214667Y649073D01*
X5214575D01*
X5214390Y649165D01*
X5214112D01*
X5213742Y649350D01*
X5212725Y649628D01*
X5211431Y650090D01*
X5209952Y650737D01*
X5208380Y651569D01*
X5206808Y652494D01*
X5205329Y653696D01*
X5205236Y653788D01*
X5205144Y653881D01*
X5204867Y654158D01*
X5204497Y654435D01*
X5203572Y655360D01*
X5202463Y656654D01*
X5201261Y658226D01*
X5199966Y660075D01*
X5198765Y662202D01*
X5197748Y664605D01*
Y664698D01*
X5197655Y664883D01*
X5197470Y665253D01*
X5197378Y665807D01*
X5197100Y666455D01*
X5196915Y667194D01*
X5196731Y668026D01*
X5196453Y669043D01*
X5196176Y670060D01*
X5195991Y671262D01*
X5195529Y673851D01*
X5195251Y676717D01*
X5195159Y679861D01*
Y679953D01*
Y680138D01*
Y680600D01*
Y681063D01*
X5195251Y681710D01*
Y682449D01*
X5195344Y684206D01*
X5195621Y686240D01*
X5195898Y688367D01*
X5196361Y690586D01*
X5196915Y692805D01*
Y692897D01*
X5197008Y693082D01*
X5197100Y693359D01*
X5197193Y693729D01*
X5197563Y694746D01*
X5198117Y696041D01*
X5198672Y697520D01*
X5199412Y698999D01*
X5200336Y700571D01*
X5201261Y702050D01*
X5201353Y702235D01*
X5201723Y702697D01*
X5202278Y703345D01*
X5203018Y704177D01*
X5203850Y705101D01*
X5204867Y706026D01*
X5205884Y707043D01*
X5207086Y707875D01*
X5207271Y707967D01*
X5207640Y708245D01*
X5208288Y708615D01*
X5209212Y709077D01*
X5210322Y709632D01*
X5211616Y710094D01*
X5213095Y710649D01*
X5214759Y711111D01*
X5214944D01*
X5215222Y711203D01*
X5215499Y711296D01*
X5216424Y711388D01*
X5217718Y711573D01*
X5219197Y711758D01*
X5220954Y711943D01*
X5222896Y712035D01*
X5225022Y712128D01*
X5248044D01*
Y648148D01*
D02*
G37*
G36*
X5165018Y662109D02*
X5165111Y662202D01*
X5165573Y662571D01*
X5166128Y663126D01*
X5167052Y663773D01*
X5168069Y664605D01*
X5169364Y665530D01*
X5170843Y666547D01*
X5172507Y667564D01*
X5172600D01*
X5172692Y667657D01*
X5173247Y668026D01*
X5174171Y668489D01*
X5175281Y669043D01*
X5176575Y669691D01*
X5177962Y670338D01*
X5179349Y670985D01*
X5180736Y671540D01*
Y663958D01*
X5180643D01*
X5180458Y663773D01*
X5180088Y663681D01*
X5179626Y663404D01*
X5179071Y663126D01*
X5178424Y662756D01*
X5176852Y661832D01*
X5175003Y660815D01*
X5173154Y659520D01*
X5171213Y658041D01*
X5169271Y656469D01*
X5169179Y656377D01*
X5169086Y656284D01*
X5168809Y656007D01*
X5168439Y655730D01*
X5167607Y654805D01*
X5166497Y653696D01*
X5165388Y652401D01*
X5164186Y650922D01*
X5163169Y649443D01*
X5162244Y647871D01*
X5157159D01*
Y712128D01*
X5165018D01*
Y662109D01*
D02*
G37*
%LPC*%
G36*
X4531859Y491495D02*
X4510686D01*
Y472449D01*
X4510779Y471340D01*
X4510871Y470045D01*
X4510964Y468566D01*
X4511149Y467087D01*
X4511426Y465607D01*
X4511796Y464313D01*
X4511888Y464128D01*
X4512073Y463758D01*
X4512351Y463204D01*
X4512720Y462464D01*
X4513275Y461632D01*
X4513922Y460800D01*
X4514754Y459968D01*
X4515679Y459320D01*
X4515772Y459228D01*
X4516141Y459043D01*
X4516696Y458766D01*
X4517436Y458396D01*
X4518268Y458118D01*
X4519192Y457841D01*
X4520302Y457656D01*
X4521411Y457564D01*
X4521504D01*
X4521596D01*
X4522151Y457656D01*
X4522983Y457749D01*
X4524093Y457934D01*
X4525202Y458396D01*
X4526496Y458951D01*
X4527698Y459783D01*
X4528900Y460892D01*
X4528993Y461077D01*
X4529363Y461539D01*
X4529825Y462279D01*
X4530380Y463481D01*
X4530934Y464868D01*
X4531397Y466717D01*
X4531766Y468843D01*
X4531859Y471340D01*
Y491495D01*
D02*
G37*
G36*
X5239538Y704546D02*
X5224375D01*
X5223728Y704454D01*
X5222341Y704362D01*
X5220769Y704269D01*
X5219105Y704084D01*
X5217441Y703807D01*
X5216054Y703437D01*
X5215869Y703345D01*
X5215407Y703252D01*
X5214759Y702975D01*
X5213927Y702605D01*
X5213003Y702050D01*
X5212078Y701495D01*
X5211154Y700848D01*
X5210229Y700109D01*
X5210137Y699924D01*
X5209767Y699554D01*
X5209212Y698907D01*
X5208565Y697982D01*
X5207825Y696780D01*
X5206993Y695393D01*
X5206253Y693822D01*
X5205606Y692065D01*
Y691972D01*
X5205514Y691788D01*
X5205421Y691510D01*
X5205329Y691140D01*
X5205236Y690678D01*
X5205052Y690031D01*
X5204867Y689384D01*
X5204682Y688644D01*
X5204404Y686795D01*
X5204127Y684668D01*
X5203942Y682265D01*
X5203850Y679676D01*
Y679583D01*
Y679214D01*
Y678751D01*
X5203942Y678012D01*
Y677179D01*
X5204035Y676255D01*
X5204127Y675145D01*
X5204219Y674036D01*
X5204682Y671540D01*
X5205236Y668951D01*
X5206069Y666547D01*
X5206623Y665345D01*
X5207178Y664328D01*
Y664236D01*
X5207363Y664051D01*
X5207548Y663773D01*
X5207733Y663404D01*
X5208472Y662479D01*
X5209397Y661370D01*
X5210599Y660168D01*
X5211986Y658966D01*
X5213558Y657949D01*
X5215222Y657117D01*
X5215407Y657024D01*
X5215869Y656932D01*
X5216701Y656654D01*
X5217903Y656377D01*
X5219382Y656192D01*
X5221231Y655915D01*
X5222341Y655822D01*
X5223543D01*
X5224745Y655730D01*
X5239538D01*
Y704546D01*
D02*
G37*
%LPD*%
D62*
X3770000Y635607D02*
X3880000D01*
X3770000Y414393D02*
Y635607D01*
Y414393D02*
X3880000D01*
Y635607D01*
X4625000Y3045000D02*
Y3155000D01*
Y3045000D02*
X4875000D01*
Y3155000D01*
X4625000D02*
X4875000D01*
X4530000Y360000D02*
Y640000D01*
X4420000Y360000D02*
X4530000D01*
X4420000D02*
Y640000D01*
X4530000D01*
X4345000Y2810000D02*
X4455000D01*
Y3090000D01*
X4345000D02*
X4455000D01*
X4345000Y2810000D02*
Y3090000D01*
X4120000Y635607D02*
X4230000D01*
X4120000Y414393D02*
Y635607D01*
Y414393D02*
X4230000D01*
Y635607D01*
X3614000Y2802500D02*
X3779000D01*
Y3073120D01*
X3614000D02*
X3779000D01*
X3614000Y2802500D02*
Y3073120D01*
X3482500Y2802500D02*
Y3028322D01*
X3367500Y2802500D02*
X3482500D01*
X3367500D02*
Y3028322D01*
X3482500D01*
X4601641Y2932900D02*
X4851641D01*
Y2822900D02*
Y2932900D01*
X4601641Y2822900D02*
X4851641D01*
X4601641D02*
Y2932900D01*
X5389000Y765000D02*
Y2685000D01*
X2764000Y765000D02*
X5389000D01*
X2764000D02*
Y2685000D01*
X5389000D01*
X2885000Y2870000D02*
Y3280000D01*
X3265000D01*
Y2870000D02*
Y3280000D01*
X2885000Y2870000D02*
X3265000D01*
X4109977Y2802500D02*
Y3093713D01*
X4251190D01*
Y2802500D02*
Y3093713D01*
X4109977Y2802500D02*
X4251190D01*
X4026190D02*
Y3093713D01*
X3884976Y2802500D02*
X4026190D01*
X3884976D02*
Y3093713D01*
X4026190D01*
%TF.MD5,aba8f25556693cc7d0598dc23cd7753d*%
M02*
