%TF.GenerationSoftware,Altium Limited,Altium Designer,25.8.1 (18)*%
G04 Layer_Color=8421504*
%FSLAX45Y45*%
%MOMM*%
%TF.SameCoordinates,E65FC597-5470-48E6-A3C5-A0BB56F9C58A*%
%TF.FilePolarity,Positive*%
%TF.FileFunction,Paste,Top*%
%TF.Part,Single*%
G01*
G75*
%TA.AperFunction,SMDPad,CuDef*%
%ADD11R,0.80000X0.90000*%
%TA.AperFunction,ConnectorPad*%
%ADD12R,0.90000X2.00000*%
%TA.AperFunction,SMDPad,CuDef*%
%ADD13R,1.35620X1.05464*%
%ADD14R,0.85822X0.85626*%
%TA.AperFunction,BGAPad,CuDef*%
%ADD15R,1.33000X1.33000*%
%TA.AperFunction,SMDPad,CuDef*%
%ADD16R,0.70000X0.70000*%
%TA.AperFunction,ConnectorPad*%
%ADD17R,2.00000X0.90000*%
%TA.AperFunction,SMDPad,CuDef*%
%ADD18R,0.81213X0.65872*%
%ADD19R,0.80000X0.80000*%
%ADD20R,0.60000X1.10000*%
%ADD21R,0.91213X0.85872*%
D11*
X4400000Y2865000D02*
D03*
X4475000Y415000D02*
D03*
Y585000D02*
D03*
X4400000Y3035000D02*
D03*
D12*
X4625000Y2575000D02*
D03*
Y875000D02*
D03*
X4498000Y2575000D02*
D03*
X4371000Y875000D02*
D03*
X3990000Y2575000D02*
D03*
X2974000Y875000D02*
D03*
X3609000Y2575000D02*
D03*
X3228000D02*
D03*
X3990000Y875000D02*
D03*
X3863000Y2575000D02*
D03*
X4371000D02*
D03*
X4244000D02*
D03*
X4117000D02*
D03*
X3736000D02*
D03*
X3482000D02*
D03*
X3355000D02*
D03*
X3101000D02*
D03*
X2974000D02*
D03*
X3101000Y875000D02*
D03*
X3228000D02*
D03*
X3355000D02*
D03*
X3482000D02*
D03*
X3609000D02*
D03*
X3736000D02*
D03*
X3863000D02*
D03*
X4117000D02*
D03*
X4244000D02*
D03*
X4498000D02*
D03*
D13*
X3696500Y3010388D02*
D03*
Y2865232D02*
D03*
D14*
X3425000Y2855313D02*
D03*
Y2975509D02*
D03*
D15*
X3875000Y2008500D02*
D03*
X3691500D02*
D03*
X4058500D02*
D03*
Y1641500D02*
D03*
Y1825000D02*
D03*
X3875000D02*
D03*
X3691500D02*
D03*
Y1641500D02*
D03*
X3875000D02*
D03*
D16*
X4880000Y383500D02*
D03*
X4770000D02*
D03*
X4880000Y566500D02*
D03*
X4770000D02*
D03*
D17*
X2874000Y2296500D02*
D03*
Y1280500D02*
D03*
Y2169500D02*
D03*
Y2042500D02*
D03*
Y1915500D02*
D03*
Y1788500D02*
D03*
Y1661500D02*
D03*
Y1534500D02*
D03*
Y1407500D02*
D03*
Y1153500D02*
D03*
D18*
X3825000Y592671D02*
D03*
Y457329D02*
D03*
X4175000D02*
D03*
Y592671D02*
D03*
D19*
X4675000Y3100000D02*
D03*
X4825000D02*
D03*
X4801641Y2877900D02*
D03*
X4651640D02*
D03*
D20*
X3170000Y3215000D02*
D03*
Y2935000D02*
D03*
X2980000D02*
D03*
X3075000D02*
D03*
X2980000Y3215000D02*
D03*
D21*
X4180583Y2870436D02*
D03*
Y3025777D02*
D03*
X3955583D02*
D03*
Y2870436D02*
D03*
%TF.MD5,be8b79689392a396118dcc57f5cee95e*%
M02*
