%TF.GenerationSoftware,Altium Limited,Altium Designer,25.8.1 (18)*%
G04 Layer_Physical_Order=1*
G04 Layer_Color=255*
%FSLAX45Y45*%
%MOMM*%
%TF.SameCoordinates,E65FC597-5470-48E6-A3C5-A0BB56F9C58A*%
%TF.FilePolarity,Positive*%
%TF.FileFunction,Copper,L1,Top,Signal*%
%TF.Part,Single*%
G01*
G75*
%TA.AperFunction,Conductor*%
%ADD10C,0.25400*%
%TA.AperFunction,SMDPad,CuDef*%
%ADD11R,0.80000X0.90000*%
%TA.AperFunction,ConnectorPad*%
%ADD12R,0.90000X2.00000*%
%TA.AperFunction,SMDPad,CuDef*%
%ADD13R,1.35620X1.05464*%
%ADD14R,0.85822X0.85626*%
%TA.AperFunction,BGAPad,CuDef*%
%ADD15R,1.33000X1.33000*%
%TA.AperFunction,SMDPad,CuDef*%
%ADD16R,0.70000X0.70000*%
%TA.AperFunction,ConnectorPad*%
%ADD17R,2.00000X0.90000*%
%TA.AperFunction,SMDPad,CuDef*%
%ADD18R,0.81213X0.65872*%
%ADD19R,0.80000X0.80000*%
%ADD20R,0.60000X1.10000*%
%ADD21R,0.91213X0.85872*%
%TA.AperFunction,ComponentPad*%
%ADD22R,1.50800X1.50800*%
G04:AMPARAMS|DCode=23|XSize=1mm|YSize=1.8mm|CornerRadius=0.5mm|HoleSize=0mm|Usage=FLASHONLY|Rotation=90.000|XOffset=0mm|YOffset=0mm|HoleType=Round|Shape=RoundedRectangle|*
%AMROUNDEDRECTD23*
21,1,1.00000,0.80000,0,0,90.0*
21,1,0.00000,1.80000,0,0,90.0*
1,1,1.00000,0.40000,0.00000*
1,1,1.00000,0.40000,0.00000*
1,1,1.00000,-0.40000,0.00000*
1,1,1.00000,-0.40000,0.00000*
%
%ADD23ROUNDEDRECTD23*%
G04:AMPARAMS|DCode=24|XSize=1mm|YSize=2.2mm|CornerRadius=0.5mm|HoleSize=0mm|Usage=FLASHONLY|Rotation=90.000|XOffset=0mm|YOffset=0mm|HoleType=Round|Shape=RoundedRectangle|*
%AMROUNDEDRECTD24*
21,1,1.00000,1.20000,0,0,90.0*
21,1,0.00000,2.20000,0,0,90.0*
1,1,1.00000,0.60000,0.00000*
1,1,1.00000,0.60000,0.00000*
1,1,1.00000,-0.60000,0.00000*
1,1,1.00000,-0.60000,0.00000*
%
%ADD24ROUNDEDRECTD24*%
%ADD25C,1.50800*%
%ADD26C,0.90000*%
%TA.AperFunction,ViaPad*%
%ADD27C,1.52400*%
%ADD28C,0.70000*%
G36*
X5251370Y3451151D02*
X5280489Y3439090D01*
X5306694Y3421580D01*
X5328980Y3399294D01*
X5346490Y3373088D01*
X5358551Y3343970D01*
X5364700Y3313058D01*
Y3297300D01*
Y2645475D01*
X4744082D01*
X4736278Y2643923D01*
X4729663Y2639502D01*
X4725242Y2632887D01*
X4723690Y2625083D01*
Y825083D01*
X4725242Y817279D01*
X4729663Y810664D01*
X4736278Y806243D01*
X4744082Y804691D01*
X5361451D01*
X5363178Y802964D01*
X5364700Y799289D01*
Y137300D01*
Y122526D01*
X5358936Y93546D01*
X5347628Y66248D01*
X5331213Y41680D01*
X5310320Y20787D01*
X5285752Y4372D01*
X5258454Y-6936D01*
X5229474Y-12700D01*
X128942D01*
X98030Y-6551D01*
X68912Y5510D01*
X42706Y23020D01*
X20420Y45306D01*
X2910Y71511D01*
X-9151Y100629D01*
X-15300Y131541D01*
Y147300D01*
Y2607202D01*
X-5299Y2607300D01*
X-5300Y2607309D01*
Y3297300D01*
Y3313058D01*
X849Y3343970D01*
X12910Y3373088D01*
X30420Y3399294D01*
X52706Y3421580D01*
X78912Y3439090D01*
X108030Y3451151D01*
X138942Y3457300D01*
X5220459D01*
X5251370Y3451151D01*
D02*
G37*
%LPC*%
G36*
X4852980Y3375580D02*
X4831100D01*
X4810885Y3367207D01*
X4795414Y3351735D01*
X4787040Y3331520D01*
Y3309640D01*
X4790058Y3302354D01*
X4780050Y3293330D01*
X4762700Y3300516D01*
Y3253100D01*
X4810116D01*
X4806403Y3262064D01*
X4816123Y3271784D01*
X4831100Y3265580D01*
X4852980D01*
X4873195Y3273954D01*
X4888667Y3289425D01*
X4897040Y3309640D01*
Y3331520D01*
X4888667Y3351735D01*
X4873195Y3367207D01*
X4852980Y3375580D01*
D02*
G37*
G36*
X4737300Y3300516D02*
X4715786Y3291605D01*
X4698795Y3274614D01*
X4689884Y3253100D01*
X4737300D01*
Y3300516D01*
D02*
G37*
G36*
X2085940Y3305000D02*
X2064060D01*
X2043845Y3296627D01*
X2028373Y3281155D01*
X2020000Y3260940D01*
Y3239060D01*
X2028373Y3218845D01*
X2043845Y3203374D01*
X2064060Y3195000D01*
X2085940D01*
X2106155Y3203374D01*
X2121626Y3218845D01*
X2130000Y3239060D01*
Y3260940D01*
X2121626Y3281155D01*
X2106155Y3296627D01*
X2085940Y3305000D01*
D02*
G37*
G36*
X1718620Y3281600D02*
X1696740D01*
X1676525Y3273227D01*
X1661054Y3257755D01*
X1652680Y3237540D01*
Y3215660D01*
X1661054Y3195445D01*
X1676525Y3179974D01*
X1696740Y3171600D01*
X1718620D01*
X1738835Y3179974D01*
X1754307Y3195445D01*
X1762680Y3215660D01*
Y3237540D01*
X1754307Y3257755D01*
X1738835Y3273227D01*
X1718620Y3281600D01*
D02*
G37*
G36*
X1498558Y3290000D02*
X1481443D01*
X1464911Y3285570D01*
X1450089Y3277013D01*
X1437987Y3264911D01*
X1429430Y3250089D01*
X1425000Y3233558D01*
Y3216443D01*
X1429430Y3199911D01*
X1437987Y3185089D01*
X1450089Y3172987D01*
X1464911Y3164430D01*
X1481443Y3160000D01*
X1498558D01*
X1515089Y3164430D01*
X1529911Y3172987D01*
X1542013Y3185089D01*
X1550570Y3199911D01*
X1555000Y3216443D01*
Y3233558D01*
X1550570Y3250089D01*
X1542013Y3264911D01*
X1529911Y3277013D01*
X1515089Y3285570D01*
X1498558Y3290000D01*
D02*
G37*
G36*
X818557D02*
X801442D01*
X784911Y3285570D01*
X770089Y3277013D01*
X757987Y3264911D01*
X749430Y3250089D01*
X745000Y3233558D01*
Y3216443D01*
X749430Y3199911D01*
X757987Y3185089D01*
X770089Y3172987D01*
X784911Y3164430D01*
X801442Y3160000D01*
X818557D01*
X835089Y3164430D01*
X849911Y3172987D01*
X862013Y3185089D01*
X870570Y3199911D01*
X875000Y3216443D01*
Y3233558D01*
X870570Y3250089D01*
X862013Y3264911D01*
X849911Y3277013D01*
X835089Y3285570D01*
X818557Y3290000D01*
D02*
G37*
G36*
X5192773Y3410000D02*
X5157227D01*
X5122892Y3400800D01*
X5092108Y3383027D01*
X5066973Y3357892D01*
X5049200Y3327108D01*
X5040000Y3292773D01*
Y3257227D01*
X5049200Y3222892D01*
X5066973Y3192108D01*
X5092108Y3166973D01*
X5122892Y3149200D01*
X5157227Y3140000D01*
X5192773D01*
X5227108Y3149200D01*
X5257892Y3166973D01*
X5283027Y3192108D01*
X5300800Y3222892D01*
X5310000Y3257227D01*
Y3292773D01*
X5300800Y3327108D01*
X5283027Y3357892D01*
X5257892Y3383027D01*
X5227108Y3400800D01*
X5192773Y3410000D01*
D02*
G37*
G36*
X192773D02*
X157227D01*
X122892Y3400800D01*
X92108Y3383027D01*
X66973Y3357892D01*
X49200Y3327108D01*
X40000Y3292773D01*
Y3257227D01*
X49200Y3222892D01*
X66973Y3192108D01*
X92108Y3166973D01*
X122892Y3149200D01*
X157227Y3140000D01*
X192773D01*
X227108Y3149200D01*
X257892Y3166973D01*
X283027Y3192108D01*
X300800Y3222892D01*
X310000Y3257227D01*
Y3292773D01*
X300800Y3327108D01*
X283027Y3357892D01*
X257892Y3383027D01*
X227108Y3400800D01*
X192773Y3410000D01*
D02*
G37*
G36*
X2560940Y2955000D02*
X2539060D01*
X2518845Y2946627D01*
X2503373Y2931155D01*
X2495000Y2910940D01*
Y2889060D01*
X2503373Y2868845D01*
X2518845Y2853374D01*
X2539060Y2845000D01*
X2560940D01*
X2581155Y2853374D01*
X2596627Y2868845D01*
X2605000Y2889060D01*
Y2910940D01*
X2596627Y2931155D01*
X2581155Y2946627D01*
X2560940Y2955000D01*
D02*
G37*
G36*
X1060940Y2925000D02*
X1039060D01*
X1018845Y2916627D01*
X1003374Y2901155D01*
X995000Y2880940D01*
Y2859060D01*
X1003374Y2838845D01*
X1018845Y2823374D01*
X1039060Y2815000D01*
X1060940D01*
X1081155Y2823374D01*
X1096627Y2838845D01*
X1105000Y2859060D01*
Y2880940D01*
X1096627Y2901155D01*
X1081155Y2916627D01*
X1060940Y2925000D01*
D02*
G37*
G36*
X2425000Y3020392D02*
X2125000D01*
X2117197Y3018840D01*
X2110581Y3014419D01*
X2106161Y3007804D01*
X2104608Y3000000D01*
Y2800000D01*
X2106161Y2792197D01*
X2110581Y2785581D01*
X2117197Y2781161D01*
X2125000Y2779608D01*
X2425000D01*
X2432804Y2781161D01*
X2439419Y2785581D01*
X2443840Y2792197D01*
X2445392Y2800000D01*
Y3000000D01*
X2443840Y3007804D01*
X2439419Y3014419D01*
X2432804Y3018840D01*
X2425000Y3020392D01*
D02*
G37*
G36*
X1215700Y2926000D02*
X1193820D01*
X1173605Y2917627D01*
X1158134Y2902155D01*
X1149760Y2881940D01*
Y2860060D01*
X1158134Y2839845D01*
X1173605Y2824374D01*
X1181651Y2821041D01*
X1179125Y2808341D01*
X1175000D01*
X1162241Y2805803D01*
X1151425Y2798575D01*
X1026425Y2673575D01*
X1019197Y2662759D01*
X1016659Y2650000D01*
Y2444441D01*
X1003373Y2431155D01*
X995000Y2410940D01*
Y2389060D01*
X1003373Y2368845D01*
X1018845Y2353373D01*
X1039060Y2345000D01*
X1060940D01*
X1081155Y2353373D01*
X1096626Y2368845D01*
X1105000Y2389060D01*
Y2410940D01*
X1096626Y2431155D01*
X1083340Y2444441D01*
Y2636190D01*
X1114440Y2667290D01*
X1123795Y2659214D01*
X1114884Y2637700D01*
X1162300D01*
Y2685116D01*
X1140786Y2676205D01*
X1132710Y2685560D01*
X1188810Y2741659D01*
X1388131D01*
X1390657Y2728959D01*
X1376092Y2722926D01*
X1360621Y2707455D01*
X1352247Y2687240D01*
Y2665360D01*
X1360621Y2645145D01*
X1376092Y2629673D01*
X1393252Y2622565D01*
Y2332901D01*
X1379966Y2319615D01*
X1371593Y2299400D01*
Y2277520D01*
X1379966Y2257305D01*
X1395438Y2241834D01*
X1415652Y2233460D01*
X1437533D01*
X1457747Y2241834D01*
X1473219Y2257305D01*
X1481592Y2277520D01*
Y2299400D01*
X1473219Y2319615D01*
X1459933Y2332901D01*
Y2644886D01*
X1457932Y2654944D01*
X1462247Y2665360D01*
Y2687240D01*
X1453874Y2707455D01*
X1438402Y2722926D01*
X1423837Y2728959D01*
X1426364Y2741659D01*
X1536190D01*
X1601425Y2676425D01*
X1612241Y2669197D01*
X1625000Y2666659D01*
X1705559D01*
X1718845Y2653373D01*
X1739060Y2645000D01*
X1760940D01*
X1781155Y2653373D01*
X1796627Y2668845D01*
X1805000Y2689060D01*
Y2710940D01*
X1796627Y2731155D01*
X1781155Y2746626D01*
X1760940Y2755000D01*
X1739060D01*
X1718845Y2746626D01*
X1705559Y2733340D01*
X1638810D01*
X1573575Y2798575D01*
X1562759Y2805803D01*
X1550000Y2808341D01*
X1230395D01*
X1227869Y2821041D01*
X1235915Y2824374D01*
X1251387Y2839845D01*
X1259760Y2860060D01*
Y2881940D01*
X1251387Y2902155D01*
X1235915Y2917627D01*
X1215700Y2926000D01*
D02*
G37*
G36*
X1187700Y2685116D02*
Y2637700D01*
X1235116D01*
X1226205Y2659214D01*
X1209214Y2676205D01*
X1187700Y2685116D01*
D02*
G37*
G36*
X1235116Y2612300D02*
X1187700D01*
Y2564884D01*
X1209214Y2573795D01*
X1226205Y2590786D01*
X1235116Y2612300D01*
D02*
G37*
G36*
X1162300D02*
X1114884D01*
X1123795Y2590786D01*
X1140786Y2573795D01*
X1162300Y2564884D01*
Y2612300D01*
D02*
G37*
G36*
X669532Y2484735D02*
X647651D01*
X627437Y2476362D01*
X611965Y2460890D01*
X603592Y2440676D01*
Y2418796D01*
X611965Y2398581D01*
X627437Y2383109D01*
X647651Y2374736D01*
X669532D01*
X689746Y2383109D01*
X705218Y2398581D01*
X713591Y2418796D01*
Y2440676D01*
X705218Y2460890D01*
X689746Y2476362D01*
X669532Y2484735D01*
D02*
G37*
G36*
X2810940Y2930000D02*
X2789060D01*
X2768845Y2921627D01*
X2753373Y2906155D01*
X2745000Y2885940D01*
Y2867151D01*
X2296425Y2418575D01*
X2289197Y2407759D01*
X2286659Y2395000D01*
Y2284441D01*
X2273373Y2271155D01*
X2265000Y2250940D01*
Y2229060D01*
X2273373Y2208845D01*
X2288845Y2193374D01*
X2309060Y2185000D01*
X2330940D01*
X2351155Y2193374D01*
X2366626Y2208845D01*
X2375000Y2229060D01*
Y2250940D01*
X2366626Y2271155D01*
X2353340Y2284441D01*
Y2381190D01*
X2792151Y2820000D01*
X2810940D01*
X2831155Y2828374D01*
X2846627Y2843845D01*
X2855000Y2864060D01*
Y2885940D01*
X2846627Y2906155D01*
X2831155Y2921627D01*
X2810940Y2930000D01*
D02*
G37*
G36*
X607500Y2232604D02*
X527500D01*
X509227Y2230198D01*
X492198Y2223145D01*
X477576Y2211924D01*
X466355Y2197302D01*
X459302Y2180274D01*
X456896Y2162000D01*
X459302Y2143726D01*
X466355Y2126698D01*
X477576Y2112076D01*
X492198Y2100855D01*
X509227Y2093802D01*
X527500Y2091396D01*
X607500D01*
X625773Y2093802D01*
X642802Y2100855D01*
X657424Y2112076D01*
X668645Y2126698D01*
X675698Y2143726D01*
X678104Y2162000D01*
X675698Y2180274D01*
X668645Y2197302D01*
X657424Y2211924D01*
X642802Y2223145D01*
X625773Y2230198D01*
X607500Y2232604D01*
D02*
G37*
G36*
X270940Y2325000D02*
X249060D01*
X228845Y2316627D01*
X213373Y2301155D01*
X205000Y2280940D01*
Y2259060D01*
X210698Y2245304D01*
X203021Y2232604D01*
X107500D01*
X89226Y2230198D01*
X72198Y2223145D01*
X57575Y2211924D01*
X46355Y2197302D01*
X39302Y2180274D01*
X36896Y2162000D01*
X39302Y2143726D01*
X46355Y2126698D01*
X57575Y2112076D01*
X72198Y2100855D01*
X89226Y2093802D01*
X107500Y2091396D01*
X227500D01*
X245774Y2093802D01*
X262802Y2100855D01*
X277425Y2112076D01*
X288645Y2126698D01*
X295698Y2143726D01*
X298104Y2162000D01*
X295698Y2180274D01*
X288645Y2197302D01*
X282074Y2205866D01*
X285278Y2220939D01*
X291155Y2223374D01*
X306627Y2238845D01*
X315000Y2259060D01*
Y2280940D01*
X306627Y2301155D01*
X291155Y2316627D01*
X270940Y2325000D01*
D02*
G37*
G36*
X4347300Y1990116D02*
X4325786Y1981205D01*
X4308795Y1964214D01*
X4299884Y1942700D01*
X4347300D01*
Y1990116D01*
D02*
G37*
G36*
X4420116Y1917300D02*
X4372700D01*
Y1869884D01*
X4394214Y1878795D01*
X4411205Y1895786D01*
X4420116Y1917300D01*
D02*
G37*
G36*
X4347300D02*
X4299884D01*
X4308795Y1895786D01*
X4325786Y1878795D01*
X4347300Y1869884D01*
Y1917300D01*
D02*
G37*
G36*
X2513271Y1947800D02*
X2512700D01*
Y1859700D01*
X2600800D01*
Y1860271D01*
X2593931Y1885907D01*
X2580660Y1908893D01*
X2561893Y1927660D01*
X2538907Y1940931D01*
X2513271Y1947800D01*
D02*
G37*
G36*
X2487300D02*
X2486730D01*
X2461093Y1940931D01*
X2438108Y1927660D01*
X2419340Y1908893D01*
X2406070Y1885907D01*
X2399200Y1860271D01*
Y1859700D01*
X2487300D01*
Y1947800D01*
D02*
G37*
G36*
X3160940Y1905000D02*
X3139060D01*
X3118845Y1896627D01*
X3103374Y1881155D01*
X3095000Y1860940D01*
Y1839060D01*
X3103374Y1818845D01*
X3118845Y1803374D01*
X3139060Y1795000D01*
X3160940D01*
X3181155Y1803374D01*
X3196627Y1818845D01*
X3205000Y1839060D01*
Y1860940D01*
X3196627Y1881155D01*
X3181155Y1896627D01*
X3160940Y1905000D01*
D02*
G37*
G36*
X2600800Y1834300D02*
X2512700D01*
Y1746200D01*
X2513271D01*
X2538907Y1753070D01*
X2561893Y1766340D01*
X2580660Y1785108D01*
X2593931Y1808093D01*
X2600800Y1833730D01*
Y1834300D01*
D02*
G37*
G36*
X2487300D02*
X2399200D01*
Y1833730D01*
X2406070Y1808093D01*
X2419340Y1785108D01*
X2438108Y1766340D01*
X2461093Y1753070D01*
X2486730Y1746200D01*
X2487300D01*
Y1834300D01*
D02*
G37*
G36*
X1460940Y1855000D02*
X1439060D01*
X1418845Y1846627D01*
X1403374Y1831155D01*
X1395000Y1810940D01*
Y1789060D01*
X1403374Y1768845D01*
X1418845Y1753374D01*
X1439060Y1745000D01*
X1460940D01*
X1481155Y1753374D01*
X1496627Y1768845D01*
X1505000Y1789060D01*
Y1810940D01*
X1496627Y1831155D01*
X1481155Y1846627D01*
X1460940Y1855000D01*
D02*
G37*
G36*
X3331500Y3426841D02*
X3068500D01*
X3055741Y3424303D01*
X3044925Y3417075D01*
X2973725Y3345875D01*
X2966498Y3335059D01*
X2963960Y3322300D01*
Y3290000D01*
X2930000D01*
Y3140000D01*
X3016659D01*
Y3010000D01*
X2930000D01*
Y2860000D01*
X2941800D01*
Y2830360D01*
X2944338Y2817601D01*
X2951565Y2806785D01*
X3051616Y2706733D01*
X3046756Y2695000D01*
X2909000D01*
Y2455000D01*
X3194660D01*
Y2425100D01*
X3197198Y2412341D01*
X3204425Y2401525D01*
X3391114Y2214836D01*
X3401930Y2207608D01*
X3414689Y2205071D01*
X3722065D01*
X3733052Y2194083D01*
X3753267Y2185710D01*
X3775147D01*
X3795362Y2194083D01*
X3810834Y2209555D01*
X3819207Y2229770D01*
Y2251650D01*
X3810834Y2271865D01*
X3795362Y2287336D01*
X3775147Y2295710D01*
X3753267D01*
X3733052Y2287336D01*
X3717581Y2271865D01*
X3717534Y2271752D01*
X3428499D01*
X3261341Y2438910D01*
Y2455000D01*
X3448497D01*
X3451024Y2442300D01*
X3443845Y2439327D01*
X3428373Y2423855D01*
X3420000Y2403640D01*
Y2381760D01*
X3428373Y2361545D01*
X3443845Y2346074D01*
X3464060Y2337700D01*
X3485940D01*
X3506155Y2346074D01*
X3515441Y2355360D01*
X3560801D01*
X3573560Y2357898D01*
X3584376Y2365125D01*
X3610362Y2391111D01*
X3623932Y2386721D01*
X3630468Y2370942D01*
X3645940Y2355471D01*
X3666155Y2347097D01*
X3688035D01*
X3708250Y2355471D01*
X3723721Y2370942D01*
X3732095Y2391157D01*
Y2413037D01*
X3723721Y2433252D01*
X3714673Y2442300D01*
X3719934Y2455000D01*
X3829660D01*
Y2341099D01*
X3832198Y2328340D01*
X3839425Y2317524D01*
X3873520Y2283429D01*
Y2263160D01*
X3881893Y2242945D01*
X3897365Y2227474D01*
X3917580Y2219100D01*
X3939460D01*
X3959675Y2227474D01*
X3975146Y2242945D01*
X3983520Y2263160D01*
Y2285040D01*
X3975146Y2305255D01*
X3959675Y2320727D01*
X3939460Y2329100D01*
X3922150D01*
X3896341Y2354909D01*
Y2455000D01*
X3956660D01*
Y2394620D01*
X3959198Y2381861D01*
X3966425Y2371045D01*
X4068744Y2268725D01*
X4068079Y2267119D01*
Y2245239D01*
X4076452Y2225024D01*
X4091924Y2209552D01*
X4112139Y2201179D01*
X4134019D01*
X4154234Y2209552D01*
X4169705Y2225024D01*
X4178079Y2245239D01*
Y2267119D01*
X4169705Y2287334D01*
X4154234Y2302805D01*
X4134019Y2311179D01*
X4120592D01*
X4023341Y2408430D01*
Y2455000D01*
X4337660D01*
Y2429420D01*
X4318845Y2421627D01*
X4303373Y2406155D01*
X4295000Y2385940D01*
Y2364060D01*
X4303373Y2343845D01*
X4318845Y2328374D01*
X4339060Y2320000D01*
X4360940D01*
X4381155Y2328374D01*
X4396626Y2343845D01*
X4405000Y2364060D01*
Y2385940D01*
X4401380Y2394678D01*
X4401803Y2395310D01*
X4404341Y2408069D01*
Y2455000D01*
X4427600D01*
Y2449600D01*
X4464660D01*
Y2081810D01*
X4372887Y1990038D01*
X4372700Y1990116D01*
Y1942700D01*
X4420116D01*
X4420038Y1942887D01*
X4521576Y2044425D01*
X4528803Y2055242D01*
X4531341Y2068000D01*
Y2449600D01*
X4566659D01*
Y1983810D01*
X4286190Y1703341D01*
X4145000D01*
Y1728000D01*
X4145001D01*
Y1738501D01*
X4145000D01*
Y1911500D01*
X4145001D01*
Y1922001D01*
X4145000D01*
Y2095000D01*
X3972001D01*
Y2095001D01*
X3961500D01*
Y2095000D01*
X3788501D01*
Y2095001D01*
X3778000D01*
Y2095000D01*
X3605000D01*
Y1922001D01*
X3605000D01*
Y1911500D01*
X3605000D01*
Y1848462D01*
X3488689D01*
X3416979Y1920171D01*
X3422240Y1932871D01*
X3428811D01*
X3449026Y1941245D01*
X3464498Y1956716D01*
X3472871Y1976931D01*
Y1998811D01*
X3464498Y2019026D01*
X3449026Y2034498D01*
X3428811Y2042871D01*
X3406931D01*
X3386716Y2034498D01*
X3371245Y2019026D01*
X3362871Y1998811D01*
Y1992240D01*
X3350171Y1986980D01*
X3020796Y2316355D01*
X3009980Y2323582D01*
X2997221Y2326120D01*
X2994000D01*
Y2361500D01*
X2754000D01*
Y2329841D01*
X2695500D01*
X2682741Y2327303D01*
X2671925Y2320075D01*
X2548249Y2196400D01*
X2404600D01*
Y2005600D01*
X2595400D01*
Y2149249D01*
X2709310Y2263160D01*
X2754000D01*
Y2104500D01*
Y1977500D01*
Y1850500D01*
Y1723500D01*
Y1596500D01*
Y1469500D01*
Y1342500D01*
Y1215500D01*
Y1088500D01*
X2949756D01*
X2954616Y1076767D01*
X2950425Y1072575D01*
X2943198Y1061759D01*
X2940660Y1049000D01*
Y995000D01*
X2909000D01*
Y804744D01*
X2897267Y799884D01*
X2683341Y1013810D01*
Y1443000D01*
X2680803Y1455759D01*
X2673575Y1466575D01*
X2587096Y1553055D01*
X2588899Y1556177D01*
X2595400Y1580441D01*
Y1605560D01*
X2588899Y1629823D01*
X2576339Y1651577D01*
X2558577Y1669339D01*
X2536823Y1681899D01*
X2512560Y1688400D01*
X2487441D01*
X2463177Y1681899D01*
X2441423Y1669339D01*
X2423661Y1651577D01*
X2411102Y1629823D01*
X2404600Y1605560D01*
Y1580441D01*
X2411102Y1556177D01*
X2423661Y1534423D01*
X2441423Y1516661D01*
X2463177Y1504102D01*
X2487441Y1497600D01*
X2512560D01*
X2536823Y1504102D01*
X2539945Y1505904D01*
X2616659Y1429190D01*
Y1000000D01*
X2619197Y987241D01*
X2626425Y976425D01*
X3033754Y569095D01*
X3044571Y561868D01*
X3057330Y559330D01*
X3764394D01*
Y539735D01*
X3885606D01*
Y634600D01*
X4114394D01*
Y586886D01*
X3987340Y459832D01*
X3975607Y464692D01*
Y468240D01*
X3967233Y488455D01*
X3951762Y503926D01*
X3931547Y512300D01*
X3909667D01*
X3901257Y508816D01*
X3891006Y515665D01*
Y515665D01*
X3837699D01*
Y457329D01*
Y398994D01*
X3891006D01*
Y398993D01*
X3901202Y405806D01*
X3908940Y402601D01*
X3911407Y397216D01*
X3913915Y389890D01*
X3908707Y383341D01*
X3143068D01*
X2533341Y993068D01*
Y1249168D01*
X2536823Y1250102D01*
X2558577Y1262661D01*
X2576339Y1280423D01*
X2588899Y1302177D01*
X2595400Y1326441D01*
Y1351560D01*
X2588899Y1375823D01*
X2576339Y1397577D01*
X2558577Y1415339D01*
X2536823Y1427899D01*
X2512560Y1434400D01*
X2487441D01*
X2463177Y1427899D01*
X2441423Y1415339D01*
X2423661Y1397577D01*
X2411102Y1375823D01*
X2404600Y1351560D01*
Y1326441D01*
X2411102Y1302177D01*
X2423661Y1280423D01*
X2441423Y1262661D01*
X2463177Y1250102D01*
X2466660Y1249168D01*
Y979258D01*
X2469197Y966499D01*
X2476425Y955682D01*
X3105682Y326425D01*
X3116499Y319197D01*
X3129258Y316660D01*
X3924659D01*
X3937418Y319197D01*
X3948234Y326425D01*
X4097260Y475451D01*
X4108994Y470591D01*
Y470030D01*
X4162300D01*
Y515665D01*
X4154068D01*
X4149207Y527398D01*
X4161544Y539735D01*
X4235606D01*
Y634600D01*
X4415000D01*
Y520000D01*
X4535000D01*
Y533159D01*
X4715000D01*
Y511500D01*
X4914359D01*
Y465010D01*
X4887849Y438500D01*
X4715000D01*
Y328500D01*
X4846659D01*
Y230150D01*
X4834645Y218136D01*
X4831155Y221626D01*
X4810940Y230000D01*
X4789060D01*
X4768845Y221626D01*
X4753374Y206155D01*
X4745000Y185940D01*
Y164060D01*
X4753374Y143845D01*
X4768845Y128373D01*
X4789060Y120000D01*
X4810940D01*
X4831155Y128373D01*
X4846627Y143845D01*
X4849441Y150640D01*
X4859952Y152731D01*
X4870769Y159958D01*
X4903575Y192765D01*
X4910802Y203581D01*
X4913340Y216340D01*
Y328500D01*
X4935000D01*
Y391349D01*
X4971275Y427625D01*
X4978503Y438441D01*
X4981041Y451200D01*
Y500463D01*
X4993741Y502990D01*
X4998795Y490786D01*
X5015786Y473795D01*
X5037300Y464884D01*
Y525000D01*
Y585116D01*
X5015786Y576205D01*
X4998795Y559214D01*
X4993741Y547010D01*
X4981041Y549537D01*
Y615045D01*
X4978503Y627803D01*
X4971276Y638620D01*
X4872980Y736915D01*
X4862164Y744143D01*
X4849405Y746681D01*
X4699254D01*
X4690000Y755000D01*
Y995000D01*
X4531341D01*
Y1064931D01*
X4528803Y1077690D01*
X4526634Y1080935D01*
X4530000Y1089060D01*
Y1110940D01*
X4521626Y1131155D01*
X4506155Y1146627D01*
X4485940Y1155000D01*
X4464060D01*
X4443845Y1146627D01*
X4428373Y1131155D01*
X4420000Y1110940D01*
Y1089060D01*
X4428373Y1068845D01*
X4443845Y1053374D01*
X4464060Y1045000D01*
X4464660D01*
Y995000D01*
X4404341D01*
Y1561108D01*
X4438992Y1595759D01*
X4457781D01*
X4477996Y1604132D01*
X4493468Y1619604D01*
X4501841Y1639819D01*
Y1661699D01*
X4493468Y1681914D01*
X4477996Y1697385D01*
X4457781Y1705759D01*
X4435901D01*
X4415686Y1697385D01*
X4400215Y1681914D01*
X4391841Y1661699D01*
Y1642910D01*
X4347425Y1598493D01*
X4340198Y1587677D01*
X4337660Y1574918D01*
Y995000D01*
X4277341D01*
Y1337818D01*
X4274803Y1350577D01*
X4267575Y1361394D01*
X4261512Y1367456D01*
X4264142Y1373805D01*
Y1395685D01*
X4255769Y1415900D01*
X4240297Y1431372D01*
X4220082Y1439745D01*
X4198202D01*
X4177987Y1431372D01*
X4162516Y1415900D01*
X4154142Y1395685D01*
Y1373805D01*
X4162516Y1353590D01*
X4177987Y1338118D01*
X4198202Y1329745D01*
X4204923D01*
X4210660Y1324008D01*
Y995000D01*
X4167501D01*
Y1223819D01*
X4180787Y1237105D01*
X4189160Y1257320D01*
Y1279200D01*
X4180787Y1299415D01*
X4165315Y1314887D01*
X4145100Y1323260D01*
X4123220D01*
X4103006Y1314887D01*
X4087534Y1299415D01*
X4079160Y1279200D01*
Y1257320D01*
X4087534Y1237105D01*
X4100820Y1223819D01*
Y995000D01*
X4032101D01*
Y1253979D01*
X4045387Y1267265D01*
X4053760Y1287480D01*
Y1309360D01*
X4045387Y1329575D01*
X4029915Y1345047D01*
X4009700Y1353420D01*
X3987820D01*
X3967605Y1345047D01*
X3952134Y1329575D01*
X3943760Y1309360D01*
Y1287480D01*
X3952134Y1267265D01*
X3965420Y1253979D01*
Y995000D01*
X3007341D01*
Y1035190D01*
X3413810Y1441660D01*
X3505559D01*
X3518845Y1428374D01*
X3539060Y1420000D01*
X3560940D01*
X3581155Y1428374D01*
X3596627Y1443845D01*
X3605000Y1464060D01*
Y1485940D01*
X3596627Y1506155D01*
X3581155Y1521627D01*
X3560940Y1530000D01*
X3539060D01*
X3518845Y1521627D01*
X3505559Y1508341D01*
X3400000D01*
X3387241Y1505803D01*
X3376425Y1498575D01*
X3358916Y1481067D01*
X3343935Y1484047D01*
X3339495Y1494766D01*
X3324024Y1510238D01*
X3303809Y1518611D01*
X3281929D01*
X3261714Y1510238D01*
X3246242Y1494766D01*
X3237869Y1474551D01*
Y1452671D01*
X3246242Y1432456D01*
X3261714Y1416985D01*
X3272433Y1412545D01*
X3275413Y1397564D01*
X3005733Y1127884D01*
X2994000Y1132744D01*
Y1215500D01*
Y1342500D01*
Y1469500D01*
Y1596500D01*
Y1723500D01*
Y1850500D01*
Y1977500D01*
Y2104500D01*
Y2230889D01*
X2996768Y2233403D01*
X3005733Y2237116D01*
X3451304Y1791546D01*
X3462120Y1784319D01*
X3474879Y1781781D01*
X3605000D01*
Y1738501D01*
X3605000D01*
Y1728000D01*
X3605000D01*
Y1555000D01*
X3778000D01*
Y1555000D01*
X3788501D01*
Y1555000D01*
X3961500D01*
Y1555000D01*
X3972001D01*
Y1555000D01*
X4145000D01*
Y1636659D01*
X4300000D01*
X4312759Y1639197D01*
X4323575Y1646425D01*
X4623575Y1946424D01*
X4630803Y1957241D01*
X4633340Y1970000D01*
Y2455000D01*
X4690000D01*
Y2695000D01*
X4680111D01*
X4674851Y2707700D01*
X4739010Y2771859D01*
X4900942D01*
X4913701Y2774397D01*
X4924517Y2781625D01*
X5016275Y2873382D01*
X5023503Y2884199D01*
X5026041Y2896958D01*
Y3074605D01*
X5023503Y3087364D01*
X5016275Y3098180D01*
X4918180Y3196275D01*
X4907364Y3203503D01*
X4894605Y3206041D01*
X4814891D01*
X4806405Y3218741D01*
X4810116Y3227700D01*
X4689884D01*
X4698795Y3206187D01*
X4715786Y3189196D01*
X4721609Y3186784D01*
X4725161Y3174510D01*
X4723850Y3172109D01*
X4716898Y3161704D01*
X4716559Y3160000D01*
X4615000D01*
Y3133340D01*
X4460000D01*
X4447241Y3130802D01*
X4436424Y3123575D01*
X4412849Y3100000D01*
X4340000D01*
Y3083780D01*
X4327300Y3075294D01*
X4315940Y3080000D01*
X4294060D01*
X4273845Y3071627D01*
X4258890Y3056671D01*
X4256208Y3056826D01*
X4246190Y3059928D01*
Y3088713D01*
X4164798D01*
X4017636Y3235875D01*
X4006820Y3243102D01*
X3994061Y3245640D01*
X3526511D01*
X3355075Y3417075D01*
X3344259Y3424303D01*
X3331500Y3426841D01*
D02*
G37*
G36*
X2085940Y2480000D02*
X2064060D01*
X2043845Y2471627D01*
X2028374Y2456155D01*
X2020000Y2435940D01*
Y2414060D01*
X2028374Y2393845D01*
X2041660Y2380559D01*
Y2113810D01*
X1457850Y1530000D01*
X1445111D01*
X1439851Y1542700D01*
X1973575Y2076425D01*
X1980803Y2087241D01*
X1983341Y2100000D01*
Y2205559D01*
X1996627Y2218845D01*
X2005000Y2239060D01*
Y2260940D01*
X1996627Y2281155D01*
X1981155Y2296627D01*
X1960940Y2305000D01*
X1939060D01*
X1918845Y2296627D01*
X1903374Y2281155D01*
X1895000Y2260940D01*
Y2239060D01*
X1903374Y2218845D01*
X1916660Y2205559D01*
Y2113810D01*
X1326425Y1523575D01*
X1319198Y1512759D01*
X1316660Y1500000D01*
Y1469441D01*
X1303374Y1456155D01*
X1295000Y1435940D01*
Y1414060D01*
X1303374Y1393845D01*
X1318845Y1378374D01*
X1339060Y1370000D01*
X1360940D01*
X1381155Y1378374D01*
X1396627Y1393845D01*
X1405000Y1414060D01*
Y1424258D01*
X1417700Y1429519D01*
X1418845Y1428374D01*
X1439060Y1420000D01*
X1460940D01*
X1481155Y1428374D01*
X1496627Y1443845D01*
X1505000Y1464060D01*
Y1482849D01*
X2098575Y2076425D01*
X2105803Y2087241D01*
X2108341Y2100000D01*
Y2380559D01*
X2121627Y2393845D01*
X2130000Y2414060D01*
Y2435940D01*
X2121627Y2456155D01*
X2106155Y2471627D01*
X2085940Y2480000D01*
D02*
G37*
G36*
X4490940Y1495000D02*
X4469060D01*
X4448845Y1486627D01*
X4433374Y1471155D01*
X4425000Y1450940D01*
Y1429060D01*
X4433374Y1408845D01*
X4448845Y1393374D01*
X4469060Y1385000D01*
X4490940D01*
X4511155Y1393374D01*
X4526627Y1408845D01*
X4535000Y1429060D01*
Y1450940D01*
X4526627Y1471155D01*
X4511155Y1486627D01*
X4490940Y1495000D01*
D02*
G37*
G36*
X2286154Y1360639D02*
X2264274D01*
X2244059Y1352265D01*
X2228587Y1336794D01*
X2220214Y1316579D01*
Y1294699D01*
X2228587Y1274484D01*
X2244059Y1259012D01*
X2264274Y1250639D01*
X2286154D01*
X2306369Y1259012D01*
X2321840Y1274484D01*
X2330214Y1294699D01*
Y1316579D01*
X2321840Y1336794D01*
X2306369Y1352265D01*
X2286154Y1360639D01*
D02*
G37*
G36*
X607500Y1368604D02*
X527500D01*
X509227Y1366198D01*
X492198Y1359145D01*
X477576Y1347925D01*
X466355Y1333302D01*
X459302Y1316274D01*
X456896Y1298000D01*
X459302Y1279727D01*
X466355Y1262698D01*
X477576Y1248076D01*
X492198Y1236856D01*
X509227Y1229802D01*
X527500Y1227396D01*
X607500D01*
X625773Y1229802D01*
X642802Y1236856D01*
X657424Y1248076D01*
X668645Y1262698D01*
X675698Y1279727D01*
X678104Y1298000D01*
X675698Y1316274D01*
X668645Y1333302D01*
X657424Y1347925D01*
X642802Y1359145D01*
X625773Y1366198D01*
X607500Y1368604D01*
D02*
G37*
G36*
X227500D02*
X107500D01*
X89226Y1366198D01*
X72198Y1359145D01*
X57575Y1347925D01*
X46355Y1333302D01*
X39302Y1316274D01*
X36896Y1298000D01*
X39302Y1279727D01*
X46355Y1262698D01*
X57575Y1248076D01*
X72198Y1236856D01*
X89226Y1229802D01*
X107500Y1227396D01*
X227500D01*
X245774Y1229802D01*
X262802Y1236856D01*
X277425Y1248076D01*
X288645Y1262698D01*
X295698Y1279727D01*
X298104Y1298000D01*
X295698Y1316274D01*
X288645Y1333302D01*
X277425Y1347925D01*
X262802Y1359145D01*
X245774Y1366198D01*
X227500Y1368604D01*
D02*
G37*
G36*
X1830380Y1305480D02*
X1808500D01*
X1788285Y1297107D01*
X1772814Y1281635D01*
X1764440Y1261420D01*
Y1239540D01*
X1772814Y1219325D01*
X1788285Y1203854D01*
X1808500Y1195480D01*
X1830380D01*
X1850595Y1203854D01*
X1866067Y1219325D01*
X1874440Y1239540D01*
Y1261420D01*
X1866067Y1281635D01*
X1850595Y1297107D01*
X1830380Y1305480D01*
D02*
G37*
G36*
X885940Y1130000D02*
X864060D01*
X843845Y1121626D01*
X828374Y1106155D01*
X820000Y1085940D01*
Y1064060D01*
X828374Y1043845D01*
X843845Y1028373D01*
X864060Y1020000D01*
X885940D01*
X906155Y1028373D01*
X921627Y1043845D01*
X930000Y1064060D01*
Y1085940D01*
X921627Y1106155D01*
X906155Y1121626D01*
X885940Y1130000D01*
D02*
G37*
G36*
X1062700Y1010116D02*
Y962700D01*
X1110116D01*
X1101205Y984214D01*
X1084214Y1001205D01*
X1062700Y1010116D01*
D02*
G37*
G36*
X1110116Y937300D02*
X1062700D01*
Y889884D01*
X1084214Y898795D01*
X1101205Y915786D01*
X1110116Y937300D01*
D02*
G37*
G36*
X386311Y2754629D02*
X364431D01*
X344216Y2746255D01*
X328745Y2730784D01*
X320371Y2710569D01*
Y2688689D01*
X328745Y2668474D01*
X342031Y2655188D01*
Y1842287D01*
X344569Y1829528D01*
X351796Y1818711D01*
X396558Y1773949D01*
Y1755160D01*
X404931Y1734945D01*
X420403Y1719474D01*
X440618Y1711100D01*
X462498D01*
X482713Y1719474D01*
X498184Y1734945D01*
X506558Y1755160D01*
Y1773949D01*
X649268Y1916660D01*
X1352916D01*
X1357776Y1904926D01*
X958725Y1505875D01*
X951497Y1495059D01*
X948959Y1482300D01*
Y546110D01*
X774264Y371415D01*
X763580Y375840D01*
X741700D01*
X721485Y367467D01*
X706014Y351995D01*
X697640Y331780D01*
Y309900D01*
X706014Y289685D01*
X721485Y274214D01*
X741700Y265840D01*
X763580D01*
X783795Y274214D01*
X799267Y289685D01*
X807640Y309900D01*
Y310490D01*
X998487Y501337D01*
X998612Y501349D01*
X998885Y501078D01*
X1003449Y507909D01*
X1005619Y511156D01*
X1011629Y520151D01*
X1016138Y542821D01*
X1015640D01*
Y885109D01*
X1028341Y893595D01*
X1037300Y889884D01*
Y950000D01*
Y1010116D01*
X1028341Y1006405D01*
X1015640Y1014891D01*
Y1468490D01*
X1442151Y1895000D01*
X1460940D01*
X1481155Y1903374D01*
X1496627Y1918845D01*
X1505000Y1939060D01*
Y1960940D01*
X1496627Y1981155D01*
X1481155Y1996627D01*
X1460940Y2005000D01*
X1439060D01*
X1418845Y1996627D01*
X1405559Y1983341D01*
X635458D01*
X622699Y1980803D01*
X611882Y1973576D01*
X459407Y1821100D01*
X443709D01*
X408712Y1856097D01*
Y2655188D01*
X421998Y2668474D01*
X430371Y2688689D01*
Y2710569D01*
X421998Y2730784D01*
X406526Y2746255D01*
X386311Y2754629D01*
D02*
G37*
G36*
X1460940Y830000D02*
X1439060D01*
X1418845Y821626D01*
X1403373Y806155D01*
X1395000Y785940D01*
Y764060D01*
X1403373Y743845D01*
X1418845Y728373D01*
X1439060Y720000D01*
X1460940D01*
X1481155Y728373D01*
X1496626Y743845D01*
X1505000Y764060D01*
Y785940D01*
X1496626Y806155D01*
X1481155Y821626D01*
X1460940Y830000D01*
D02*
G37*
G36*
X755940Y1680000D02*
X734060D01*
X713845Y1671627D01*
X698374Y1656155D01*
X690000Y1635940D01*
Y1614060D01*
X698374Y1593845D01*
X713845Y1578374D01*
X714355Y1578162D01*
X715913Y1551655D01*
X715323Y1539200D01*
X715544Y1538667D01*
X716659Y1526168D01*
Y644441D01*
X703373Y631155D01*
X695000Y610940D01*
Y589060D01*
X703373Y568845D01*
X718845Y553374D01*
X739060Y545000D01*
X760940D01*
X781155Y553374D01*
X796627Y568845D01*
X805000Y589060D01*
Y610940D01*
X796627Y631155D01*
X783341Y644441D01*
Y1539199D01*
X783839D01*
X783240Y1542646D01*
X782711Y1551639D01*
X780862Y1583081D01*
X791627Y1593845D01*
X800000Y1614060D01*
Y1635940D01*
X791627Y1656155D01*
X776155Y1671627D01*
X755940Y1680000D01*
D02*
G37*
G36*
X5062700Y585116D02*
Y537700D01*
X5110116D01*
X5101205Y559214D01*
X5084214Y576205D01*
X5062700Y585116D01*
D02*
G37*
G36*
X4241007Y515665D02*
X4187700D01*
Y470030D01*
X4241007D01*
Y515665D01*
D02*
G37*
G36*
X3812299D02*
X3758993D01*
Y470029D01*
X3812299D01*
Y515665D01*
D02*
G37*
G36*
X5110116Y512300D02*
X5062700D01*
Y464884D01*
X5084214Y473795D01*
X5101205Y490786D01*
X5110116Y512300D01*
D02*
G37*
G36*
X4540400Y485400D02*
X4487700D01*
Y427700D01*
X4540400D01*
Y485400D01*
D02*
G37*
G36*
X4462300D02*
X4409600D01*
Y427700D01*
X4462300D01*
Y485400D01*
D02*
G37*
G36*
X4241007Y444630D02*
X4187700D01*
Y398994D01*
X4241007D01*
Y444630D01*
D02*
G37*
G36*
X4162300D02*
X4108994D01*
Y398994D01*
X4162300D01*
Y444630D01*
D02*
G37*
G36*
X3812299Y444629D02*
X3758993D01*
Y398994D01*
X3812299D01*
Y444629D01*
D02*
G37*
G36*
X2200569Y469629D02*
X2178689D01*
X2158474Y461255D01*
X2143002Y445784D01*
X2134629Y425569D01*
Y403689D01*
X2143002Y383474D01*
X2158474Y368002D01*
X2178689Y359629D01*
X2200569D01*
X2220784Y368002D01*
X2236255Y383474D01*
X2244629Y403689D01*
Y425569D01*
X2236255Y445784D01*
X2220784Y461255D01*
X2200569Y469629D01*
D02*
G37*
G36*
X4540400Y402300D02*
X4487700D01*
Y344600D01*
X4540400D01*
Y402300D01*
D02*
G37*
G36*
X4462300D02*
X4409600D01*
Y344600D01*
X4462300D01*
Y402300D01*
D02*
G37*
G36*
X4321057Y250000D02*
X4303942D01*
X4287411Y245570D01*
X4272589Y237013D01*
X4260487Y224911D01*
X4251930Y210089D01*
X4247500Y193557D01*
Y176442D01*
X4251930Y159911D01*
X4260487Y145089D01*
X4272589Y132987D01*
X4287411Y124430D01*
X4303942Y120000D01*
X4321057D01*
X4337589Y124430D01*
X4352411Y132987D01*
X4364513Y145089D01*
X4373070Y159911D01*
X4377500Y176442D01*
Y193557D01*
X4373070Y210089D01*
X4364513Y224911D01*
X4352411Y237013D01*
X4337589Y245570D01*
X4321057Y250000D01*
D02*
G37*
G36*
X3896057D02*
X3878942D01*
X3862411Y245570D01*
X3847589Y237013D01*
X3835487Y224911D01*
X3826930Y210089D01*
X3822500Y193557D01*
Y176442D01*
X3826930Y159911D01*
X3835487Y145089D01*
X3847589Y132987D01*
X3862411Y124430D01*
X3878942Y120000D01*
X3896057D01*
X3912589Y124430D01*
X3927411Y132987D01*
X3939513Y145089D01*
X3948070Y159911D01*
X3952500Y176442D01*
Y193557D01*
X3948070Y210089D01*
X3939513Y224911D01*
X3927411Y237013D01*
X3912589Y245570D01*
X3896057Y250000D01*
D02*
G37*
G36*
X2671057Y247500D02*
X2653942D01*
X2637411Y243070D01*
X2622589Y234513D01*
X2610487Y222411D01*
X2601930Y207589D01*
X2597500Y191058D01*
Y173943D01*
X2601930Y157411D01*
X2610487Y142589D01*
X2622589Y130487D01*
X2637411Y121930D01*
X2653942Y117500D01*
X2671057D01*
X2687589Y121930D01*
X2702411Y130487D01*
X2714513Y142589D01*
X2723070Y157411D01*
X2727500Y173943D01*
Y191058D01*
X2723070Y207589D01*
X2714513Y222411D01*
X2702411Y234513D01*
X2687589Y243070D01*
X2671057Y247500D01*
D02*
G37*
G36*
X2246057D02*
X2228942D01*
X2212411Y243070D01*
X2197589Y234513D01*
X2185487Y222411D01*
X2176930Y207589D01*
X2172500Y191058D01*
Y173943D01*
X2176930Y157411D01*
X2185487Y142589D01*
X2197589Y130487D01*
X2212411Y121930D01*
X2228942Y117500D01*
X2246057D01*
X2262589Y121930D01*
X2277411Y130487D01*
X2289513Y142589D01*
X2298070Y157411D01*
X2302500Y173943D01*
Y191058D01*
X2298070Y207589D01*
X2289513Y222411D01*
X2277411Y234513D01*
X2262589Y243070D01*
X2246057Y247500D01*
D02*
G37*
G36*
X1371057D02*
X1353942D01*
X1337411Y243070D01*
X1322589Y234513D01*
X1310487Y222411D01*
X1301930Y207589D01*
X1297500Y191058D01*
Y173943D01*
X1301930Y157411D01*
X1310487Y142589D01*
X1322589Y130487D01*
X1337411Y121930D01*
X1353942Y117500D01*
X1371057D01*
X1387589Y121930D01*
X1402411Y130487D01*
X1414513Y142589D01*
X1423070Y157411D01*
X1427500Y173943D01*
Y191058D01*
X1423070Y207589D01*
X1414513Y222411D01*
X1402411Y234513D01*
X1387589Y243070D01*
X1371057Y247500D01*
D02*
G37*
G36*
X946058D02*
X928943D01*
X912411Y243070D01*
X897589Y234513D01*
X885487Y222411D01*
X876930Y207589D01*
X872500Y191058D01*
Y173943D01*
X876930Y157411D01*
X885487Y142589D01*
X897589Y130487D01*
X912411Y121930D01*
X928943Y117500D01*
X946058D01*
X962589Y121930D01*
X977411Y130487D01*
X989513Y142589D01*
X998070Y157411D01*
X1002500Y173943D01*
Y191058D01*
X998070Y207589D01*
X989513Y222411D01*
X977411Y234513D01*
X962589Y243070D01*
X946058Y247500D01*
D02*
G37*
G36*
X5192773Y310000D02*
X5157227D01*
X5122892Y300800D01*
X5092108Y283027D01*
X5066973Y257892D01*
X5049200Y227108D01*
X5040000Y192773D01*
Y157227D01*
X5049200Y122892D01*
X5066973Y92108D01*
X5092108Y66973D01*
X5122892Y49200D01*
X5157227Y40000D01*
X5192773D01*
X5227108Y49200D01*
X5257892Y66973D01*
X5283027Y92108D01*
X5300800Y122892D01*
X5310000Y157227D01*
Y192773D01*
X5300800Y227108D01*
X5283027Y257892D01*
X5257892Y283027D01*
X5227108Y300800D01*
X5192773Y310000D01*
D02*
G37*
G36*
X192773D02*
X157227D01*
X122892Y300800D01*
X92108Y283027D01*
X66973Y257892D01*
X49200Y227108D01*
X40000Y192773D01*
Y157227D01*
X49200Y122892D01*
X66973Y92108D01*
X92108Y66973D01*
X122892Y49200D01*
X157227Y40000D01*
X192773D01*
X227108Y49200D01*
X257892Y66973D01*
X283027Y92108D01*
X300800Y122892D01*
X310000Y157227D01*
Y192773D01*
X300800Y227108D01*
X283027Y257892D01*
X257892Y283027D01*
X227108Y300800D01*
X192773Y310000D01*
D02*
G37*
%LPD*%
G36*
X3391659Y3061190D02*
Y3038322D01*
X3362089D01*
Y2994986D01*
X3349389Y2988393D01*
X3333784Y2994857D01*
X3311904D01*
X3291689Y2986483D01*
X3276217Y2971012D01*
X3267844Y2950797D01*
Y2928917D01*
X3276217Y2908702D01*
X3291689Y2893230D01*
X3311904Y2884857D01*
X3333784D01*
X3335728Y2885662D01*
X3344969Y2876420D01*
X3355786Y2869193D01*
X3362089Y2867939D01*
Y2827012D01*
X3349389Y2824486D01*
X3346627Y2831155D01*
X3331155Y2846627D01*
X3310940Y2855000D01*
X3289060D01*
X3268845Y2846627D01*
X3253373Y2831155D01*
X3253326Y2831042D01*
X3228009D01*
X3211750Y2847300D01*
X3217011Y2860000D01*
X3220000D01*
Y2962850D01*
X3223575Y2966425D01*
X3230803Y2977241D01*
X3233341Y2990000D01*
Y3053756D01*
X3230803Y3066515D01*
X3223575Y3077331D01*
X3172639Y3128267D01*
X3177500Y3140000D01*
X3220000D01*
Y3181660D01*
X3271190D01*
X3391659Y3061190D01*
D02*
G37*
G36*
X3968551Y3100446D02*
X3963691Y3088713D01*
X3889977D01*
Y3009992D01*
X3836093Y2956108D01*
X3835634Y2955422D01*
X3820612Y2955084D01*
X3820315Y2955354D01*
X3784310Y2991359D01*
Y3083120D01*
X3608690D01*
Y3025796D01*
X3596957Y3020936D01*
X3500512Y3117381D01*
X3495306Y3120859D01*
X3499159Y3133559D01*
X3935438D01*
X3968551Y3100446D01*
D02*
G37*
G36*
X4885000Y3040000D02*
X4891660Y3030058D01*
Y2969441D01*
X4878374Y2956155D01*
X4871077Y2938541D01*
X4828941D01*
X4825719Y2937900D01*
X4741641D01*
Y2838540D01*
X4725200D01*
X4724341Y2838369D01*
X4711640Y2848792D01*
Y2937900D01*
X4703859D01*
X4701290Y2941632D01*
X4698995Y2950600D01*
X4771275Y3022880D01*
X4778503Y3033696D01*
X4779757Y3040000D01*
X4885000D01*
D02*
G37*
G36*
X4273845Y2978374D02*
X4294060Y2970000D01*
X4315940D01*
X4327300Y2974706D01*
X4340000Y2970000D01*
Y2970000D01*
X4436256D01*
X4441117Y2958267D01*
X4412849Y2930000D01*
X4340000D01*
Y2820641D01*
X4246190D01*
Y2933372D01*
X4162127D01*
X4144390Y2951108D01*
X4149251Y2962842D01*
X4246190D01*
Y2990072D01*
X4256208Y2993174D01*
X4258890Y2993329D01*
X4273845Y2978374D01*
D02*
G37*
G36*
X4591641Y2817900D02*
X4674156D01*
X4679016Y2806167D01*
X4606425Y2733575D01*
X4599198Y2722759D01*
X4596660Y2710000D01*
Y2695000D01*
X4568400D01*
Y2700400D01*
X4510700D01*
Y2574999D01*
X4485300D01*
Y2700400D01*
X4427600D01*
Y2695000D01*
X3821004D01*
X3816144Y2706733D01*
X3883243Y2773833D01*
X3890471Y2784649D01*
X3893008Y2797408D01*
Y2807500D01*
X4021190D01*
Y2832500D01*
X4033890Y2835192D01*
X4105357Y2763725D01*
X4116173Y2756497D01*
X4128932Y2753959D01*
X4453545D01*
X4466304Y2756497D01*
X4477120Y2763725D01*
X4555055Y2841660D01*
X4591641D01*
Y2817900D01*
D02*
G37*
G36*
X4591660Y750000D02*
X4594198Y737241D01*
X4601425Y726425D01*
X4614835Y713014D01*
X4609975Y701281D01*
X3183770D01*
X3142751Y742300D01*
X3148011Y755000D01*
X4591660D01*
Y750000D01*
D02*
G37*
D10*
X756591Y325000D02*
G03*
X750474Y324253I0J-25399D01*
G01*
X764479Y325000D02*
G03*
X782399Y332399I0J25400D01*
G01*
X974912Y524912D02*
G03*
X977220Y527581I-18013J17909D01*
G01*
D02*
G03*
X982300Y542821I-20320J15240D01*
G01*
X750000Y1539199D02*
G03*
X749956Y1540690I-25401J0D01*
G01*
X782399Y332399D02*
X974912Y524912D01*
X756591Y325000D02*
X764479D01*
X982300Y542821D02*
Y1482300D01*
X750000Y325000D02*
X750474Y324252D01*
X745000Y1625000D02*
X749956Y1540690D01*
X1625000Y2700000D02*
X1750000D01*
X1550000Y2775000D02*
X1625000Y2700000D01*
X1175000Y2775000D02*
X1550000D01*
X1050000Y2650000D02*
X1175000Y2775000D01*
X1050000Y2400000D02*
Y2650000D01*
X1407247Y2664231D02*
X1426593Y2644886D01*
Y2288460D02*
Y2644886D01*
X1407247Y2664231D02*
Y2676300D01*
X982300Y1482300D02*
X1450000Y1950000D01*
X442658Y1775000D02*
X460458D01*
X635458Y1950000D02*
X1450000D01*
X460458Y1775000D02*
X635458Y1950000D01*
X375371Y1842287D02*
X442658Y1775000D01*
X375371Y1842287D02*
Y2699629D01*
X750000Y625000D02*
Y1539199D01*
X3170000Y2841900D02*
X3214199Y2797701D01*
X3297701D01*
X3300000Y2800000D01*
X3322844Y2939857D02*
X3328683D01*
X3368544Y2899996D02*
X3380220D01*
X3328683Y2939857D02*
X3368544Y2899996D01*
X3394789Y2885426D02*
X3394985D01*
X3380220Y2899996D02*
X3394789Y2885426D01*
X3100000Y3276244D02*
X3126456Y3302700D01*
X3100000Y3153756D02*
X3200000Y3053756D01*
X3100000Y3153756D02*
Y3276244D01*
X3098100Y3348100D02*
X3301900D01*
X3050000Y2985001D02*
Y3300000D01*
X3098100Y3348100D01*
X3126456Y3302700D02*
X3261505D01*
X3050000Y2985001D02*
X3075000Y2960000D01*
Y2935000D02*
Y2960000D01*
X2997300Y3322300D02*
X3068500Y3393500D01*
X2997300Y3232300D02*
Y3322300D01*
X3068500Y3393500D02*
X3331500D01*
X4880000Y216340D02*
Y383500D01*
X4808534Y183534D02*
X4847193D01*
X4800000Y175000D02*
X4808534Y183534D01*
X4847193D02*
X4880000Y216340D01*
X4947700Y451200D02*
Y615045D01*
X4849405Y713340D02*
X4947700Y615045D01*
X4661660Y713340D02*
X4849405D01*
X2320000Y2240000D02*
Y2395000D01*
X3990000Y2394620D02*
X4123079Y2261541D01*
Y2256179D02*
Y2261541D01*
X3990000Y2394620D02*
Y2575000D01*
X4350000Y2387069D02*
X4371000Y2408069D01*
X4350000Y2375000D02*
Y2387069D01*
X4371000Y2408069D02*
Y2575000D01*
X4360000Y1930000D02*
X4498000Y2068000D01*
Y2575000D01*
X4625000Y750000D02*
X4661660Y713340D01*
X4625000Y750000D02*
Y875000D01*
X4600000Y1970000D02*
Y2550000D01*
X4625000Y2575000D01*
X4300000Y1670000D02*
X4600000Y1970000D01*
X4880000Y383500D02*
X4947700Y451200D01*
X4725200Y2805200D02*
X4900942D01*
X4992700Y2896958D01*
Y3074605D01*
X4894605Y3172700D02*
X4992700Y3074605D01*
X4771455Y3172700D02*
X4894605D01*
X4673123Y2971878D02*
X4747700Y3046455D01*
X4501878Y2971878D02*
X4673123D01*
X4400000Y2870000D02*
X4501878Y2971878D01*
X4747700Y3148945D02*
X4771455Y3172700D01*
X4747700Y3046455D02*
Y3148945D01*
X4630000Y2580000D02*
Y2710000D01*
X4725200Y2805200D01*
X4400000Y2865000D02*
Y2870000D01*
X3736532Y2970356D02*
X3758162D01*
X3696500Y3010388D02*
X3736532Y2970356D01*
X3758162D02*
X3797010Y2931508D01*
Y2798955D02*
Y2931508D01*
X3394985Y2885426D02*
X3500611Y2779800D01*
X3691500Y2008500D02*
X3875000D01*
X4051500D01*
X3777855Y2779800D02*
X3797010Y2798955D01*
X4051500Y2008500D02*
X4055000Y2005000D01*
X4058500Y2008500D02*
X4070000Y1997000D01*
X3500611Y2779800D02*
X3777855D01*
X4070000Y1670000D02*
X4300000D01*
X4070000Y1825000D02*
Y1997000D01*
X4058500Y1825000D02*
X4070000D01*
X3875000D02*
X4058500D01*
X4070000Y1670000D02*
Y1825000D01*
X3700000Y1820000D02*
X3705000Y1825000D01*
X3875000D01*
X3474879Y1815121D02*
X3664879D01*
X4070000Y1640000D02*
Y1670000D01*
X4030000Y1630000D02*
X4070000Y1670000D01*
X3720000Y1670000D02*
X4050000D01*
X3691500Y1641500D02*
X3720000Y1670000D01*
X2874000Y2296500D02*
X2877721Y2292779D01*
X2997221D01*
X2695500Y2296500D02*
X2874000D01*
X2997221Y2292779D02*
X3474879Y1815121D01*
X2520000Y2100000D02*
Y2121000D01*
X2695500Y2296500D01*
X3414689Y2238411D02*
X3761908D01*
X3764207Y2240710D01*
X3560801Y2388701D02*
X3609000Y2436900D01*
X3478999Y2388701D02*
X3560801D01*
X3475000Y2392700D02*
X3478999Y2388701D01*
X3169960Y667940D02*
X4784805D01*
X3057330Y592671D02*
X3825000D01*
X2650000Y1000000D02*
X3057330Y592671D01*
X2650000Y1000000D02*
Y1443000D01*
X2500000Y1593000D02*
X2650000Y1443000D01*
X4400000Y3025000D02*
Y3040000D01*
X4460000Y3100000D01*
X4675000D01*
X3129258Y350000D02*
X3924659D01*
X4167329Y592671D01*
X4175000D01*
X2500000Y979258D02*
X3129258Y350000D01*
X3101000Y736900D02*
X3169960Y667940D01*
X2500000Y979258D02*
Y1339000D01*
X4209142Y1372676D02*
X4244000Y1337818D01*
X4209142Y1372676D02*
Y1384745D01*
X4244000Y875000D02*
Y1337818D01*
X4134160Y892160D02*
Y1268260D01*
X4117000Y875000D02*
X4134160Y892160D01*
X4475000Y1087931D02*
Y1100000D01*
X4498000Y875000D02*
Y1064931D01*
X4475000Y1087931D02*
X4498000Y1064931D01*
X3400000Y1475000D02*
X3550000D01*
X2974000Y1049000D02*
X3400000Y1475000D01*
X2974000Y875000D02*
Y1049000D01*
X3609000Y2436900D02*
Y2575000D01*
X4475000Y585000D02*
X4493500Y566500D01*
X4770000D01*
X4857700Y588800D02*
X4880000Y566500D01*
X4784805Y667940D02*
X4857700Y595045D01*
Y588800D02*
Y595045D01*
X3101000Y736900D02*
Y875000D01*
X4925000Y2925000D02*
Y3078100D01*
X4903100Y3100000D02*
X4925000Y3078100D01*
X4825000Y3100000D02*
X4903100D01*
X4912931Y2925000D02*
X4925000D01*
X4893131Y2905200D02*
X4912931Y2925000D01*
X4828941Y2905200D02*
X4893131D01*
X4801641Y2877900D02*
X4828941Y2905200D01*
X4371000Y1574918D02*
X4446841Y1650759D01*
X4371000Y875000D02*
Y1574918D01*
X2975140Y2830360D02*
X3097800Y2707700D01*
X3769960D01*
X3859668Y2797408D01*
X3615145Y2924956D02*
X3621697D01*
X3470400Y3093805D02*
X3476937D01*
X3592700Y2947402D02*
X3615145Y2924956D01*
X3592700Y2947402D02*
Y2978042D01*
X3425000Y2975509D02*
X3450509Y2950000D01*
X3621697Y2924956D02*
X3675000Y2871654D01*
X3476937Y3093805D02*
X3592700Y2978042D01*
X3450509Y2950000D02*
X3525000D01*
X3170000Y2841900D02*
Y2960000D01*
X3228000Y2425100D02*
X3414689Y2238411D01*
X3863000Y2341099D02*
X3928520Y2275579D01*
X3863000Y2341099D02*
Y2575000D01*
X3928520Y2274100D02*
Y2275579D01*
X3170000Y3215000D02*
X3285000D01*
X3425000Y3005622D02*
X3430622Y3000000D01*
X3425000Y3005622D02*
Y3075000D01*
X3285000Y3215000D02*
X3425000Y3075000D01*
X4147676Y3056013D02*
Y3058684D01*
X3994061Y3212300D02*
X4147676Y3058684D01*
X3512700Y3212300D02*
X3994061D01*
X4177912Y3025777D02*
X4180583D01*
X4147676Y3056013D02*
X4177912Y3025777D01*
X2320000Y2395000D02*
X2800000Y2875000D01*
X2980000Y3215000D02*
X2997300Y3232300D01*
X3998760Y883760D02*
Y1298420D01*
X1450000Y1475000D02*
X2075000Y2100000D01*
X1350000Y1425000D02*
Y1500000D01*
X1950000Y2100000D01*
X2075000D02*
Y2425000D01*
X4128932Y2787300D02*
X4453545D01*
X3859668Y2932533D02*
X3952912Y3025777D01*
X3859668Y2797408D02*
Y2932533D01*
X3990000Y875000D02*
X3998760Y883760D01*
X1950000Y2100000D02*
Y2250000D01*
X3228000Y2425100D02*
Y2575000D01*
X2975140Y2916720D02*
X2982760Y2924340D01*
X2975140Y2830360D02*
Y2916720D01*
X3952912Y3025777D02*
X3955583D01*
X4541245Y2875000D02*
X4625000D01*
X4453545Y2787300D02*
X4541245Y2875000D01*
X4045796Y2870436D02*
X4128932Y2787300D01*
X3955583Y2870436D02*
X4045796D01*
X3949248Y3166900D02*
X4040850Y3075297D01*
X3200000Y2990000D02*
Y3053756D01*
X3170000Y2960000D02*
X3200000Y2990000D01*
X3331500Y3393500D02*
X3512700Y3212300D01*
X3301900Y3348100D02*
X3483100Y3166900D01*
X3949248D01*
X4040850Y3007498D02*
Y3075297D01*
Y3007498D02*
X4147676Y2900672D01*
X4149328D01*
X4150000Y2900000D01*
X3261505Y3302700D02*
X3470400Y3093805D01*
X3675000Y2866390D02*
Y2871654D01*
D11*
X4400000Y2865000D02*
D03*
X4475000Y415000D02*
D03*
Y585000D02*
D03*
X4400000Y3035000D02*
D03*
D12*
X4625000Y2575000D02*
D03*
Y875000D02*
D03*
X4498000Y2575000D02*
D03*
X4371000Y875000D02*
D03*
X3990000Y2575000D02*
D03*
X2974000Y875000D02*
D03*
X3609000Y2575000D02*
D03*
X3228000D02*
D03*
X3990000Y875000D02*
D03*
X3863000Y2575000D02*
D03*
X4371000D02*
D03*
X4244000D02*
D03*
X4117000D02*
D03*
X3736000D02*
D03*
X3482000D02*
D03*
X3355000D02*
D03*
X3101000D02*
D03*
X2974000D02*
D03*
X3101000Y875000D02*
D03*
X3228000D02*
D03*
X3355000D02*
D03*
X3482000D02*
D03*
X3609000D02*
D03*
X3736000D02*
D03*
X3863000D02*
D03*
X4117000D02*
D03*
X4244000D02*
D03*
X4498000D02*
D03*
D13*
X3696500Y3010388D02*
D03*
Y2865232D02*
D03*
D14*
X3425000Y2855313D02*
D03*
Y2975509D02*
D03*
D15*
X3875000Y2008500D02*
D03*
X3691500D02*
D03*
X4058500D02*
D03*
Y1641500D02*
D03*
Y1825000D02*
D03*
X3875000D02*
D03*
X3691500D02*
D03*
Y1641500D02*
D03*
X3875000D02*
D03*
D16*
X4880000Y383500D02*
D03*
X4770000D02*
D03*
X4880000Y566500D02*
D03*
X4770000D02*
D03*
D17*
X2874000Y2296500D02*
D03*
Y1280500D02*
D03*
Y2169500D02*
D03*
Y2042500D02*
D03*
Y1915500D02*
D03*
Y1788500D02*
D03*
Y1661500D02*
D03*
Y1534500D02*
D03*
Y1407500D02*
D03*
Y1153500D02*
D03*
D18*
X3825000Y592671D02*
D03*
Y457329D02*
D03*
X4175000D02*
D03*
Y592671D02*
D03*
D19*
X4675000Y3100000D02*
D03*
X4825000D02*
D03*
X4801641Y2877900D02*
D03*
X4651640D02*
D03*
D20*
X3170000Y3215000D02*
D03*
Y2935000D02*
D03*
X2980000D02*
D03*
X3075000D02*
D03*
X2980000Y3215000D02*
D03*
D21*
X4180583Y2870436D02*
D03*
Y3025777D02*
D03*
X3955583D02*
D03*
Y2870436D02*
D03*
D22*
X2500000Y2101000D02*
D03*
D23*
X567500Y2162000D02*
D03*
Y1298000D02*
D03*
D24*
X167500Y2162000D02*
D03*
Y1298000D02*
D03*
D25*
X2500000Y1847000D02*
D03*
Y1593000D02*
D03*
Y1339000D02*
D03*
D26*
X810000Y3225000D02*
D03*
X1490000D02*
D03*
D27*
X175000Y175000D02*
D03*
X5175000D02*
D03*
X175000Y3275000D02*
D03*
X5175000D02*
D03*
D28*
X875000Y1075000D02*
D03*
X745000Y1625000D02*
D03*
X1050000Y2400000D02*
D03*
X1407247Y2676300D02*
D03*
X658592Y2429736D02*
D03*
X3300000Y2800000D02*
D03*
X3322844Y2939857D02*
D03*
X4800000Y175000D02*
D03*
X3150000Y1850000D02*
D03*
X2320000Y2240000D02*
D03*
X1204760Y2871000D02*
D03*
X4123079Y2256179D02*
D03*
X4350000Y2375000D02*
D03*
X4360000Y1930000D02*
D03*
X2189629Y414629D02*
D03*
X5050000Y525000D02*
D03*
X3764207Y2240710D02*
D03*
X3677095Y2402097D02*
D03*
X3475000Y2392700D02*
D03*
X1050000Y950000D02*
D03*
X4750000Y3240400D02*
D03*
X1175000Y2625000D02*
D03*
X3417871Y1987871D02*
D03*
X1450000Y1950000D02*
D03*
Y1800000D02*
D03*
X1750000Y2700000D02*
D03*
X2075000Y3250000D02*
D03*
X3920607Y457300D02*
D03*
X1450000Y775000D02*
D03*
X4209142Y1384745D02*
D03*
X4480000Y1440000D02*
D03*
X4134160Y1268260D02*
D03*
X4475000Y1100000D02*
D03*
X3550000Y1475000D02*
D03*
X3292869Y1463611D02*
D03*
X4305000Y3025000D02*
D03*
X4446841Y1650759D02*
D03*
X3525000Y2950000D02*
D03*
X1819440Y1250480D02*
D03*
X2275214Y1305639D02*
D03*
X1350000Y1425000D02*
D03*
X3928520Y2274100D02*
D03*
X4925000Y2925000D02*
D03*
X1050000Y2870000D02*
D03*
X375371Y2699629D02*
D03*
X260000Y2270000D02*
D03*
X1426593Y2288460D02*
D03*
X2550000Y2900000D02*
D03*
X3998760Y1298420D02*
D03*
X1450000Y1475000D02*
D03*
X1707680Y3226600D02*
D03*
X2075000Y2425000D02*
D03*
X2800000Y2875000D02*
D03*
X1950000Y2250000D02*
D03*
X752640Y320840D02*
D03*
X451558Y1766100D02*
D03*
X750000Y600000D02*
D03*
X4842040Y3320580D02*
D03*
%TF.MD5,f46796a3925979dfdeb6c076075643b2*%
M02*
